<?xml version="1.0" encoding="utf-8" standalone="no"?>
<!DOCTYPE svg PUBLIC "-//W3C//DTD SVG 1.1//EN"
  "http://www.w3.org/Graphics/SVG/1.1/DTD/svg11.dtd">
<!-- Created with matplotlib (http://matplotlib.org/) -->
<svg height="1080pt" version="1.1" viewBox="0 0 1080 1080" width="1080pt" xmlns="http://www.w3.org/2000/svg" xmlns:xlink="http://www.w3.org/1999/xlink">
 <defs>
  <style type="text/css">
*{stroke-linecap:butt;stroke-linejoin:round;stroke-miterlimit:100000;}
  </style>
 </defs>
 <g id="figure_1">
  <g id="patch_1">
   <path d="M 0 1080 
L 1080 1080 
L 1080 0 
L 0 0 
z
" style="fill:#ffffff;"/>
  </g>
  <g id="axes_1">
   <g id="patch_2">
    <path d="M 135 972 
L 972 972 
L 972 108 
L 135 108 
z
" style="fill:#ffffff;"/>
   </g>
   <g id="LineCollection_1">
    <path clip-path="url(#p5fff78d0ca)" d="M 972 960.218182 
L 719.096541 960.218182 
L 719.096541 952.363636 
L 972 952.363636 
" style="fill:none;stroke:#008000;"/>
    <path clip-path="url(#p5fff78d0ca)" d="M 972 968.072727 
L 699.130877 968.072727 
L 699.130877 956.290909 
L 719.096541 956.290909 
" style="fill:none;stroke:#008000;"/>
    <path clip-path="url(#p5fff78d0ca)" d="M 972 944.509091 
L 923.918333 944.509091 
L 923.918333 936.654545 
L 972 936.654545 
" style="fill:none;stroke:#008000;"/>
    <path clip-path="url(#p5fff78d0ca)" d="M 972 920.945455 
L 923.355614 920.945455 
L 923.355614 913.090909 
L 972 913.090909 
" style="fill:none;stroke:#008000;"/>
    <path clip-path="url(#p5fff78d0ca)" d="M 972 928.8 
L 917.752791 928.8 
L 917.752791 917.018182 
L 923.355614 917.018182 
" style="fill:none;stroke:#008000;"/>
    <path clip-path="url(#p5fff78d0ca)" d="M 923.918333 940.581818 
L 915.018014 940.581818 
L 915.018014 922.909091 
L 917.752791 922.909091 
" style="fill:none;stroke:#008000;"/>
    <path clip-path="url(#p5fff78d0ca)" d="M 972 905.236364 
L 917.54212 905.236364 
L 917.54212 897.381818 
L 972 897.381818 
" style="fill:none;stroke:#008000;"/>
    <path clip-path="url(#p5fff78d0ca)" d="M 972 881.672727 
L 918.289657 881.672727 
L 918.289657 873.818182 
L 972 873.818182 
" style="fill:none;stroke:#008000;"/>
    <path clip-path="url(#p5fff78d0ca)" d="M 972 889.527273 
L 916.952943 889.527273 
L 916.952943 877.745455 
L 918.289657 877.745455 
" style="fill:none;stroke:#008000;"/>
    <path clip-path="url(#p5fff78d0ca)" d="M 917.54212 901.309091 
L 914.272686 901.309091 
L 914.272686 883.636364 
L 916.952943 883.636364 
" style="fill:none;stroke:#008000;"/>
    <path clip-path="url(#p5fff78d0ca)" d="M 915.018014 931.745455 
L 912.816457 931.745455 
L 912.816457 892.472727 
L 914.272686 892.472727 
" style="fill:none;stroke:#008000;"/>
    <path clip-path="url(#p5fff78d0ca)" d="M 972 865.963636 
L 921.842666 865.963636 
L 921.842666 858.109091 
L 972 858.109091 
" style="fill:none;stroke:#008000;"/>
    <path clip-path="url(#p5fff78d0ca)" d="M 972 850.254545 
L 921.763884 850.254545 
L 921.763884 842.4 
L 972 842.4 
" style="fill:none;stroke:#008000;"/>
    <path clip-path="url(#p5fff78d0ca)" d="M 921.842666 862.036364 
L 916.891365 862.036364 
L 916.891365 846.327273 
L 921.763884 846.327273 
" style="fill:none;stroke:#008000;"/>
    <path clip-path="url(#p5fff78d0ca)" d="M 972 803.127273 
L 931.758433 803.127273 
L 931.758433 795.272727 
L 972 795.272727 
" style="fill:none;stroke:#008000;"/>
    <path clip-path="url(#p5fff78d0ca)" d="M 972 810.981818 
L 929.704756 810.981818 
L 929.704756 799.2 
L 931.758433 799.2 
" style="fill:none;stroke:#008000;"/>
    <path clip-path="url(#p5fff78d0ca)" d="M 972 818.836364 
L 928.282374 818.836364 
L 928.282374 805.090909 
L 929.704756 805.090909 
" style="fill:none;stroke:#008000;"/>
    <path clip-path="url(#p5fff78d0ca)" d="M 972 826.690909 
L 926.753744 826.690909 
L 926.753744 811.963636 
L 928.282374 811.963636 
" style="fill:none;stroke:#008000;"/>
    <path clip-path="url(#p5fff78d0ca)" d="M 972 787.418182 
L 929.834187 787.418182 
L 929.834187 779.563636 
L 972 779.563636 
" style="fill:none;stroke:#008000;"/>
    <path clip-path="url(#p5fff78d0ca)" d="M 972 771.709091 
L 929.44837 771.709091 
L 929.44837 763.854545 
L 972 763.854545 
" style="fill:none;stroke:#008000;"/>
    <path clip-path="url(#p5fff78d0ca)" d="M 929.834187 783.490909 
L 925.967495 783.490909 
L 925.967495 767.781818 
L 929.44837 767.781818 
" style="fill:none;stroke:#008000;"/>
    <path clip-path="url(#p5fff78d0ca)" d="M 972 740.290909 
L 928.903275 740.290909 
L 928.903275 732.436364 
L 972 732.436364 
" style="fill:none;stroke:#008000;"/>
    <path clip-path="url(#p5fff78d0ca)" d="M 972 748.145455 
L 926.237976 748.145455 
L 926.237976 736.363636 
L 928.903275 736.363636 
" style="fill:none;stroke:#008000;"/>
    <path clip-path="url(#p5fff78d0ca)" d="M 972 756 
L 925.630315 756 
L 925.630315 742.254545 
L 926.237976 742.254545 
" style="fill:none;stroke:#008000;"/>
    <path clip-path="url(#p5fff78d0ca)" d="M 925.967495 775.636364 
L 924.69305 775.636364 
L 924.69305 749.127273 
L 925.630315 749.127273 
" style="fill:none;stroke:#008000;"/>
    <path clip-path="url(#p5fff78d0ca)" d="M 926.753744 819.327273 
L 924.419827 819.327273 
L 924.419827 762.381818 
L 924.69305 762.381818 
" style="fill:none;stroke:#008000;"/>
    <path clip-path="url(#p5fff78d0ca)" d="M 972 834.545455 
L 923.90923 834.545455 
L 923.90923 790.854545 
L 924.419827 790.854545 
" style="fill:none;stroke:#008000;"/>
    <path clip-path="url(#p5fff78d0ca)" d="M 972 724.581818 
L 922.926361 724.581818 
L 922.926361 716.727273 
L 972 716.727273 
" style="fill:none;stroke:#008000;"/>
    <path clip-path="url(#p5fff78d0ca)" d="M 972 708.872727 
L 925.504016 708.872727 
L 925.504016 701.018182 
L 972 701.018182 
" style="fill:none;stroke:#008000;"/>
    <path clip-path="url(#p5fff78d0ca)" d="M 972 685.309091 
L 923.692904 685.309091 
L 923.692904 677.454545 
L 972 677.454545 
" style="fill:none;stroke:#008000;"/>
    <path clip-path="url(#p5fff78d0ca)" d="M 972 693.163636 
L 922.796494 693.163636 
L 922.796494 681.381818 
L 923.692904 681.381818 
" style="fill:none;stroke:#008000;"/>
    <path clip-path="url(#p5fff78d0ca)" d="M 925.504016 704.945455 
L 919.838111 704.945455 
L 919.838111 687.272727 
L 922.796494 687.272727 
" style="fill:none;stroke:#008000;"/>
    <path clip-path="url(#p5fff78d0ca)" d="M 922.926361 720.654545 
L 919.005082 720.654545 
L 919.005082 696.109091 
L 919.838111 696.109091 
" style="fill:none;stroke:#008000;"/>
    <path clip-path="url(#p5fff78d0ca)" d="M 923.90923 812.7 
L 918.339079 812.7 
L 918.339079 708.381818 
L 919.005082 708.381818 
" style="fill:none;stroke:#008000;"/>
    <path clip-path="url(#p5fff78d0ca)" d="M 972 661.745455 
L 922.538098 661.745455 
L 922.538098 653.890909 
L 972 653.890909 
" style="fill:none;stroke:#008000;"/>
    <path clip-path="url(#p5fff78d0ca)" d="M 972 669.6 
L 919.133291 669.6 
L 919.133291 657.818182 
L 922.538098 657.818182 
" style="fill:none;stroke:#008000;"/>
    <path clip-path="url(#p5fff78d0ca)" d="M 972 638.181818 
L 922.541203 638.181818 
L 922.541203 630.327273 
L 972 630.327273 
" style="fill:none;stroke:#008000;"/>
    <path clip-path="url(#p5fff78d0ca)" d="M 972 646.036364 
L 920.890033 646.036364 
L 920.890033 634.254545 
L 922.541203 634.254545 
" style="fill:none;stroke:#008000;"/>
    <path clip-path="url(#p5fff78d0ca)" d="M 972 614.618182 
L 924.13746 614.618182 
L 924.13746 606.763636 
L 972 606.763636 
" style="fill:none;stroke:#008000;"/>
    <path clip-path="url(#p5fff78d0ca)" d="M 972 622.472727 
L 919.321128 622.472727 
L 919.321128 610.690909 
L 924.13746 610.690909 
" style="fill:none;stroke:#008000;"/>
    <path clip-path="url(#p5fff78d0ca)" d="M 920.890033 640.145455 
L 917.878509 640.145455 
L 917.878509 616.581818 
L 919.321128 616.581818 
" style="fill:none;stroke:#008000;"/>
    <path clip-path="url(#p5fff78d0ca)" d="M 919.133291 663.709091 
L 916.638503 663.709091 
L 916.638503 628.363636 
L 917.878509 628.363636 
" style="fill:none;stroke:#008000;"/>
    <path clip-path="url(#p5fff78d0ca)" d="M 918.339079 760.540909 
L 914.752275 760.540909 
L 914.752275 646.036364 
L 916.638503 646.036364 
" style="fill:none;stroke:#008000;"/>
    <path clip-path="url(#p5fff78d0ca)" d="M 916.891365 854.181818 
L 913.360047 854.181818 
L 913.360047 703.288636 
L 914.752275 703.288636 
" style="fill:none;stroke:#008000;"/>
    <path clip-path="url(#p5fff78d0ca)" d="M 972 598.909091 
L 918.568887 598.909091 
L 918.568887 591.054545 
L 972 591.054545 
" style="fill:none;stroke:#008000;"/>
    <path clip-path="url(#p5fff78d0ca)" d="M 972 575.345455 
L 921.282492 575.345455 
L 921.282492 567.490909 
L 972 567.490909 
" style="fill:none;stroke:#008000;"/>
    <path clip-path="url(#p5fff78d0ca)" d="M 972 583.2 
L 917.104459 583.2 
L 917.104459 571.418182 
L 921.282492 571.418182 
" style="fill:none;stroke:#008000;"/>
    <path clip-path="url(#p5fff78d0ca)" d="M 972 551.781818 
L 918.451163 551.781818 
L 918.451163 543.927273 
L 972 543.927273 
" style="fill:none;stroke:#008000;"/>
    <path clip-path="url(#p5fff78d0ca)" d="M 972 536.072727 
L 920.870449 536.072727 
L 920.870449 528.218182 
L 972 528.218182 
" style="fill:none;stroke:#008000;"/>
    <path clip-path="url(#p5fff78d0ca)" d="M 972 520.363636 
L 920.53382 520.363636 
L 920.53382 512.509091 
L 972 512.509091 
" style="fill:none;stroke:#008000;"/>
    <path clip-path="url(#p5fff78d0ca)" d="M 920.870449 532.145455 
L 918.43844 532.145455 
L 918.43844 516.436364 
L 920.53382 516.436364 
" style="fill:none;stroke:#008000;"/>
    <path clip-path="url(#p5fff78d0ca)" d="M 918.451163 547.854545 
L 916.747471 547.854545 
L 916.747471 524.290909 
L 918.43844 524.290909 
" style="fill:none;stroke:#008000;"/>
    <path clip-path="url(#p5fff78d0ca)" d="M 972 559.636364 
L 914.685515 559.636364 
L 914.685515 536.072727 
L 916.747471 536.072727 
" style="fill:none;stroke:#008000;"/>
    <path clip-path="url(#p5fff78d0ca)" d="M 917.104459 577.309091 
L 913.938244 577.309091 
L 913.938244 547.854545 
L 914.685515 547.854545 
" style="fill:none;stroke:#008000;"/>
    <path clip-path="url(#p5fff78d0ca)" d="M 918.568887 594.981818 
L 913.093308 594.981818 
L 913.093308 562.581818 
L 913.938244 562.581818 
" style="fill:none;stroke:#008000;"/>
    <path clip-path="url(#p5fff78d0ca)" d="M 913.360047 778.735227 
L 912.080997 778.735227 
L 912.080997 578.781818 
L 913.093308 578.781818 
" style="fill:none;stroke:#008000;"/>
    <path clip-path="url(#p5fff78d0ca)" d="M 912.816457 912.109091 
L 909.308632 912.109091 
L 909.308632 678.758523 
L 912.080997 678.758523 
" style="fill:none;stroke:#008000;"/>
    <path clip-path="url(#p5fff78d0ca)" d="M 972 504.654545 
L 915.917554 504.654545 
L 915.917554 496.8 
L 972 496.8 
" style="fill:none;stroke:#008000;"/>
    <path clip-path="url(#p5fff78d0ca)" d="M 972 473.236364 
L 920.631524 473.236364 
L 920.631524 465.381818 
L 972 465.381818 
" style="fill:none;stroke:#008000;"/>
    <path clip-path="url(#p5fff78d0ca)" d="M 972 481.090909 
L 914.162541 481.090909 
L 914.162541 469.309091 
L 920.631524 469.309091 
" style="fill:none;stroke:#008000;"/>
    <path clip-path="url(#p5fff78d0ca)" d="M 972 488.945455 
L 913.32303 488.945455 
L 913.32303 475.2 
L 914.162541 475.2 
" style="fill:none;stroke:#008000;"/>
    <path clip-path="url(#p5fff78d0ca)" d="M 915.917554 500.727273 
L 910.622583 500.727273 
L 910.622583 482.072727 
L 913.32303 482.072727 
" style="fill:none;stroke:#008000;"/>
    <path clip-path="url(#p5fff78d0ca)" d="M 972 441.818182 
L 917.827034 441.818182 
L 917.827034 433.963636 
L 972 433.963636 
" style="fill:none;stroke:#008000;"/>
    <path clip-path="url(#p5fff78d0ca)" d="M 972 449.672727 
L 915.122876 449.672727 
L 915.122876 437.890909 
L 917.827034 437.890909 
" style="fill:none;stroke:#008000;"/>
    <path clip-path="url(#p5fff78d0ca)" d="M 972 457.527273 
L 910.158868 457.527273 
L 910.158868 443.781818 
L 915.122876 443.781818 
" style="fill:none;stroke:#008000;"/>
    <path clip-path="url(#p5fff78d0ca)" d="M 910.622583 491.4 
L 908.751414 491.4 
L 908.751414 450.654545 
L 910.158868 450.654545 
" style="fill:none;stroke:#008000;"/>
    <path clip-path="url(#p5fff78d0ca)" d="M 909.308632 795.433807 
L 905.780766 795.433807 
L 905.780766 471.027273 
L 908.751414 471.027273 
" style="fill:none;stroke:#008000;"/>
    <path clip-path="url(#p5fff78d0ca)" d="M 972 410.4 
L 917.315815 410.4 
L 917.315815 402.545455 
L 972 402.545455 
" style="fill:none;stroke:#008000;"/>
    <path clip-path="url(#p5fff78d0ca)" d="M 972 418.254545 
L 913.343266 418.254545 
L 913.343266 406.472727 
L 917.315815 406.472727 
" style="fill:none;stroke:#008000;"/>
    <path clip-path="url(#p5fff78d0ca)" d="M 972 394.690909 
L 915.975043 394.690909 
L 915.975043 386.836364 
L 972 386.836364 
" style="fill:none;stroke:#008000;"/>
    <path clip-path="url(#p5fff78d0ca)" d="M 972 378.981818 
L 915.644424 378.981818 
L 915.644424 371.127273 
L 972 371.127273 
" style="fill:none;stroke:#008000;"/>
    <path clip-path="url(#p5fff78d0ca)" d="M 915.975043 390.763636 
L 912.587208 390.763636 
L 912.587208 375.054545 
L 915.644424 375.054545 
" style="fill:none;stroke:#008000;"/>
    <path clip-path="url(#p5fff78d0ca)" d="M 972 363.272727 
L 917.734388 363.272727 
L 917.734388 355.418182 
L 972 355.418182 
" style="fill:none;stroke:#008000;"/>
    <path clip-path="url(#p5fff78d0ca)" d="M 972 347.563636 
L 917.374461 347.563636 
L 917.374461 339.709091 
L 972 339.709091 
" style="fill:none;stroke:#008000;"/>
    <path clip-path="url(#p5fff78d0ca)" d="M 917.734388 359.345455 
L 910.623347 359.345455 
L 910.623347 343.636364 
L 917.374461 343.636364 
" style="fill:none;stroke:#008000;"/>
    <path clip-path="url(#p5fff78d0ca)" d="M 912.587208 382.909091 
L 906.843624 382.909091 
L 906.843624 351.490909 
L 910.623347 351.490909 
" style="fill:none;stroke:#008000;"/>
    <path clip-path="url(#p5fff78d0ca)" d="M 913.343266 412.363636 
L 905.885096 412.363636 
L 905.885096 367.2 
L 906.843624 367.2 
" style="fill:none;stroke:#008000;"/>
    <path clip-path="url(#p5fff78d0ca)" d="M 972 316.145455 
L 912.457264 316.145455 
L 912.457264 308.290909 
L 972 308.290909 
" style="fill:none;stroke:#008000;"/>
    <path clip-path="url(#p5fff78d0ca)" d="M 972 300.436364 
L 909.984856 300.436364 
L 909.984856 292.581818 
L 972 292.581818 
" style="fill:none;stroke:#008000;"/>
    <path clip-path="url(#p5fff78d0ca)" d="M 912.457264 312.218182 
L 908.364555 312.218182 
L 908.364555 296.509091 
L 909.984856 296.509091 
" style="fill:none;stroke:#008000;"/>
    <path clip-path="url(#p5fff78d0ca)" d="M 972 324 
L 905.302079 324 
L 905.302079 304.363636 
L 908.364555 304.363636 
" style="fill:none;stroke:#008000;"/>
    <path clip-path="url(#p5fff78d0ca)" d="M 972 331.854545 
L 904.685138 331.854545 
L 904.685138 314.181818 
L 905.302079 314.181818 
" style="fill:none;stroke:#008000;"/>
    <path clip-path="url(#p5fff78d0ca)" d="M 905.885096 389.781818 
L 902.900045 389.781818 
L 902.900045 323.018182 
L 904.685138 323.018182 
" style="fill:none;stroke:#008000;"/>
    <path clip-path="url(#p5fff78d0ca)" d="M 972 284.727273 
L 905.732678 284.727273 
L 905.732678 276.872727 
L 972 276.872727 
" style="fill:none;stroke:#008000;"/>
    <path clip-path="url(#p5fff78d0ca)" d="M 972 261.163636 
L 910.104731 261.163636 
L 910.104731 253.309091 
L 972 253.309091 
" style="fill:none;stroke:#008000;"/>
    <path clip-path="url(#p5fff78d0ca)" d="M 972 269.018182 
L 904.049655 269.018182 
L 904.049655 257.236364 
L 910.104731 257.236364 
" style="fill:none;stroke:#008000;"/>
    <path clip-path="url(#p5fff78d0ca)" d="M 905.732678 280.8 
L 901.94218 280.8 
L 901.94218 263.127273 
L 904.049655 263.127273 
" style="fill:none;stroke:#008000;"/>
    <path clip-path="url(#p5fff78d0ca)" d="M 902.900045 356.4 
L 900.14529 356.4 
L 900.14529 271.963636 
L 901.94218 271.963636 
" style="fill:none;stroke:#008000;"/>
    <path clip-path="url(#p5fff78d0ca)" d="M 972 426.109091 
L 897.395291 426.109091 
L 897.395291 314.181818 
L 900.14529 314.181818 
" style="fill:none;stroke:#008000;"/>
    <path clip-path="url(#p5fff78d0ca)" d="M 905.780766 633.23054 
L 892.650932 633.23054 
L 892.650932 370.145455 
L 897.395291 370.145455 
" style="fill:none;stroke:#008000;"/>
    <path clip-path="url(#p5fff78d0ca)" d="M 972 237.6 
L 904.116331 237.6 
L 904.116331 229.745455 
L 972 229.745455 
" style="fill:none;stroke:#008000;"/>
    <path clip-path="url(#p5fff78d0ca)" d="M 972 245.454545 
L 887.250182 245.454545 
L 887.250182 233.672727 
L 904.116331 233.672727 
" style="fill:none;stroke:#008000;"/>
    <path clip-path="url(#p5fff78d0ca)" d="M 972 221.890909 
L 886.811778 221.890909 
L 886.811778 214.036364 
L 972 214.036364 
" style="fill:none;stroke:#008000;"/>
    <path clip-path="url(#p5fff78d0ca)" d="M 887.250182 239.563636 
L 884.33517 239.563636 
L 884.33517 217.963636 
L 886.811778 217.963636 
" style="fill:none;stroke:#008000;"/>
    <path clip-path="url(#p5fff78d0ca)" d="M 972 190.472727 
L 899.764584 190.472727 
L 899.764584 182.618182 
L 972 182.618182 
" style="fill:none;stroke:#008000;"/>
    <path clip-path="url(#p5fff78d0ca)" d="M 972 174.763636 
L 898.589212 174.763636 
L 898.589212 166.909091 
L 972 166.909091 
" style="fill:none;stroke:#008000;"/>
    <path clip-path="url(#p5fff78d0ca)" d="M 899.764584 186.545455 
L 892.605101 186.545455 
L 892.605101 170.836364 
L 898.589212 170.836364 
" style="fill:none;stroke:#008000;"/>
    <path clip-path="url(#p5fff78d0ca)" d="M 972 198.327273 
L 888.917735 198.327273 
L 888.917735 178.690909 
L 892.605101 178.690909 
" style="fill:none;stroke:#008000;"/>
    <path clip-path="url(#p5fff78d0ca)" d="M 972 206.181818 
L 881.319596 206.181818 
L 881.319596 188.509091 
L 888.917735 188.509091 
" style="fill:none;stroke:#008000;"/>
    <path clip-path="url(#p5fff78d0ca)" d="M 884.33517 228.763636 
L 880.420467 228.763636 
L 880.420467 197.345455 
L 881.319596 197.345455 
" style="fill:none;stroke:#008000;"/>
    <path clip-path="url(#p5fff78d0ca)" d="M 972 143.345455 
L 886.768866 143.345455 
L 886.768866 135.490909 
L 972 135.490909 
" style="fill:none;stroke:#008000;"/>
    <path clip-path="url(#p5fff78d0ca)" d="M 972 151.2 
L 877.119228 151.2 
L 877.119228 139.418182 
L 886.768866 139.418182 
" style="fill:none;stroke:#008000;"/>
    <path clip-path="url(#p5fff78d0ca)" d="M 972 159.054545 
L 869.153804 159.054545 
L 869.153804 145.309091 
L 877.119228 145.309091 
" style="fill:none;stroke:#008000;"/>
    <path clip-path="url(#p5fff78d0ca)" d="M 880.420467 213.054545 
L 862.059479 213.054545 
L 862.059479 152.181818 
L 869.153804 152.181818 
" style="fill:none;stroke:#008000;"/>
    <path clip-path="url(#p5fff78d0ca)" d="M 892.650932 501.687997 
L 836.723623 501.687997 
L 836.723623 182.618182 
L 862.059479 182.618182 
" style="fill:none;stroke:#008000;"/>
    <path clip-path="url(#p5fff78d0ca)" d="M 972 119.781818 
L 826.449883 119.781818 
L 826.449883 111.927273 
L 972 111.927273 
" style="fill:none;stroke:#008000;"/>
    <path clip-path="url(#p5fff78d0ca)" d="M 972 127.636364 
L 808.891605 127.636364 
L 808.891605 115.854545 
L 826.449883 115.854545 
" style="fill:none;stroke:#008000;"/>
    <path clip-path="url(#p5fff78d0ca)" d="M 836.723623 342.153089 
L 639.594156 342.153089 
L 639.594156 121.745455 
L 808.891605 121.745455 
" style="fill:none;stroke:#008000;"/>
    <path clip-path="url(#p5fff78d0ca)" d="M 699.130877 962.181818 
L 174.857143 962.181818 
L 174.857143 231.949272 
L 639.594156 231.949272 
" style="fill:none;stroke:#008000;"/>
   </g>
   <g id="patch_3">
    <path d="M 135 108 
L 972 108 
" style="fill:none;stroke:#000000;stroke-linecap:square;stroke-linejoin:miter;"/>
   </g>
   <g id="patch_4">
    <path d="M 972 972 
L 972 108 
" style="fill:none;stroke:#000000;stroke-linecap:square;stroke-linejoin:miter;"/>
   </g>
   <g id="patch_5">
    <path d="M 135 972 
L 972 972 
" style="fill:none;stroke:#000000;stroke-linecap:square;stroke-linejoin:miter;"/>
   </g>
   <g id="patch_6">
    <path d="M 135 972 
L 135 108 
" style="fill:none;stroke:#000000;stroke-linecap:square;stroke-linejoin:miter;"/>
   </g>
   <g id="matplotlib.axis_1">
    <g id="xtick_1">
     <g id="line2d_1">
      <defs>
       <path d="M 0 0 
L 0 -4 
" id="m47c8d2a495" style="stroke:#000000;stroke-width:0.5;"/>
      </defs>
      <g>
       <use style="stroke:#000000;stroke-width:0.5;" x="972.0" xlink:href="#m47c8d2a495" y="972.0"/>
      </g>
     </g>
     <g id="line2d_2">
      <defs>
       <path d="M 0 0 
L 0 4 
" id="m05449ac432" style="stroke:#000000;stroke-width:0.5;"/>
      </defs>
      <g>
       <use style="stroke:#000000;stroke-width:0.5;" x="972.0" xlink:href="#m05449ac432" y="108.0"/>
      </g>
     </g>
     <g id="text_1">
      <!-- 0.0 -->
      <defs>
       <path d="M 31.78125 66.40625 
Q 24.171875 66.40625 20.328125 58.90625 
Q 16.5 51.421875 16.5 36.375 
Q 16.5 21.390625 20.328125 13.890625 
Q 24.171875 6.390625 31.78125 6.390625 
Q 39.453125 6.390625 43.28125 13.890625 
Q 47.125 21.390625 47.125 36.375 
Q 47.125 51.421875 43.28125 58.90625 
Q 39.453125 66.40625 31.78125 66.40625 
M 31.78125 74.21875 
Q 44.046875 74.21875 50.515625 64.515625 
Q 56.984375 54.828125 56.984375 36.375 
Q 56.984375 17.96875 50.515625 8.265625 
Q 44.046875 -1.421875 31.78125 -1.421875 
Q 19.53125 -1.421875 13.0625 8.265625 
Q 6.59375 17.96875 6.59375 36.375 
Q 6.59375 54.828125 13.0625 64.515625 
Q 19.53125 74.21875 31.78125 74.21875 
" id="BitstreamVeraSans-Roman-30"/>
       <path d="M 10.6875 12.40625 
L 21 12.40625 
L 21 0 
L 10.6875 0 
z
" id="BitstreamVeraSans-Roman-2e"/>
      </defs>
      <g transform="translate(962.458125 985.118125)scale(0.12 -0.12)">
       <use xlink:href="#BitstreamVeraSans-Roman-30"/>
       <use x="63.623046875" xlink:href="#BitstreamVeraSans-Roman-2e"/>
       <use x="95.41015625" xlink:href="#BitstreamVeraSans-Roman-30"/>
      </g>
     </g>
    </g>
    <g id="xtick_2">
     <g id="line2d_3">
      <g>
       <use style="stroke:#000000;stroke-width:0.5;" x="807.015648223" xlink:href="#m47c8d2a495" y="972.0"/>
      </g>
     </g>
     <g id="line2d_4">
      <g>
       <use style="stroke:#000000;stroke-width:0.5;" x="807.015648223" xlink:href="#m05449ac432" y="108.0"/>
      </g>
     </g>
     <g id="text_2">
      <!-- 0.1 -->
      <defs>
       <path d="M 12.40625 8.296875 
L 28.515625 8.296875 
L 28.515625 63.921875 
L 10.984375 60.40625 
L 10.984375 69.390625 
L 28.421875 72.90625 
L 38.28125 72.90625 
L 38.28125 8.296875 
L 54.390625 8.296875 
L 54.390625 0 
L 12.40625 0 
z
" id="BitstreamVeraSans-Roman-31"/>
      </defs>
      <g transform="translate(797.473773223 985.118125)scale(0.12 -0.12)">
       <use xlink:href="#BitstreamVeraSans-Roman-30"/>
       <use x="63.623046875" xlink:href="#BitstreamVeraSans-Roman-2e"/>
       <use x="95.41015625" xlink:href="#BitstreamVeraSans-Roman-31"/>
      </g>
     </g>
    </g>
    <g id="xtick_3">
     <g id="line2d_5">
      <g>
       <use style="stroke:#000000;stroke-width:0.5;" x="642.031296446" xlink:href="#m47c8d2a495" y="972.0"/>
      </g>
     </g>
     <g id="line2d_6">
      <g>
       <use style="stroke:#000000;stroke-width:0.5;" x="642.031296446" xlink:href="#m05449ac432" y="108.0"/>
      </g>
     </g>
     <g id="text_3">
      <!-- 0.2 -->
      <defs>
       <path d="M 19.1875 8.296875 
L 53.609375 8.296875 
L 53.609375 0 
L 7.328125 0 
L 7.328125 8.296875 
Q 12.9375 14.109375 22.625 23.890625 
Q 32.328125 33.6875 34.8125 36.53125 
Q 39.546875 41.84375 41.421875 45.53125 
Q 43.3125 49.21875 43.3125 52.78125 
Q 43.3125 58.59375 39.234375 62.25 
Q 35.15625 65.921875 28.609375 65.921875 
Q 23.96875 65.921875 18.8125 64.3125 
Q 13.671875 62.703125 7.8125 59.421875 
L 7.8125 69.390625 
Q 13.765625 71.78125 18.9375 73 
Q 24.125 74.21875 28.421875 74.21875 
Q 39.75 74.21875 46.484375 68.546875 
Q 53.21875 62.890625 53.21875 53.421875 
Q 53.21875 48.921875 51.53125 44.890625 
Q 49.859375 40.875 45.40625 35.40625 
Q 44.1875 33.984375 37.640625 27.21875 
Q 31.109375 20.453125 19.1875 8.296875 
" id="BitstreamVeraSans-Roman-32"/>
      </defs>
      <g transform="translate(632.489421446 985.118125)scale(0.12 -0.12)">
       <use xlink:href="#BitstreamVeraSans-Roman-30"/>
       <use x="63.623046875" xlink:href="#BitstreamVeraSans-Roman-2e"/>
       <use x="95.41015625" xlink:href="#BitstreamVeraSans-Roman-32"/>
      </g>
     </g>
    </g>
    <g id="xtick_4">
     <g id="line2d_7">
      <g>
       <use style="stroke:#000000;stroke-width:0.5;" x="477.046944669" xlink:href="#m47c8d2a495" y="972.0"/>
      </g>
     </g>
     <g id="line2d_8">
      <g>
       <use style="stroke:#000000;stroke-width:0.5;" x="477.046944669" xlink:href="#m05449ac432" y="108.0"/>
      </g>
     </g>
     <g id="text_4">
      <!-- 0.3 -->
      <defs>
       <path d="M 40.578125 39.3125 
Q 47.65625 37.796875 51.625 33 
Q 55.609375 28.21875 55.609375 21.1875 
Q 55.609375 10.40625 48.1875 4.484375 
Q 40.765625 -1.421875 27.09375 -1.421875 
Q 22.515625 -1.421875 17.65625 -0.515625 
Q 12.796875 0.390625 7.625 2.203125 
L 7.625 11.71875 
Q 11.71875 9.328125 16.59375 8.109375 
Q 21.484375 6.890625 26.8125 6.890625 
Q 36.078125 6.890625 40.9375 10.546875 
Q 45.796875 14.203125 45.796875 21.1875 
Q 45.796875 27.640625 41.28125 31.265625 
Q 36.765625 34.90625 28.71875 34.90625 
L 20.21875 34.90625 
L 20.21875 43.015625 
L 29.109375 43.015625 
Q 36.375 43.015625 40.234375 45.921875 
Q 44.09375 48.828125 44.09375 54.296875 
Q 44.09375 59.90625 40.109375 62.90625 
Q 36.140625 65.921875 28.71875 65.921875 
Q 24.65625 65.921875 20.015625 65.03125 
Q 15.375 64.15625 9.8125 62.3125 
L 9.8125 71.09375 
Q 15.4375 72.65625 20.34375 73.4375 
Q 25.25 74.21875 29.59375 74.21875 
Q 40.828125 74.21875 47.359375 69.109375 
Q 53.90625 64.015625 53.90625 55.328125 
Q 53.90625 49.265625 50.4375 45.09375 
Q 46.96875 40.921875 40.578125 39.3125 
" id="BitstreamVeraSans-Roman-33"/>
      </defs>
      <g transform="translate(467.505069669 985.118125)scale(0.12 -0.12)">
       <use xlink:href="#BitstreamVeraSans-Roman-30"/>
       <use x="63.623046875" xlink:href="#BitstreamVeraSans-Roman-2e"/>
       <use x="95.41015625" xlink:href="#BitstreamVeraSans-Roman-33"/>
      </g>
     </g>
    </g>
    <g id="xtick_5">
     <g id="line2d_9">
      <g>
       <use style="stroke:#000000;stroke-width:0.5;" x="312.062592891" xlink:href="#m47c8d2a495" y="972.0"/>
      </g>
     </g>
     <g id="line2d_10">
      <g>
       <use style="stroke:#000000;stroke-width:0.5;" x="312.062592891" xlink:href="#m05449ac432" y="108.0"/>
      </g>
     </g>
     <g id="text_5">
      <!-- 0.4 -->
      <defs>
       <path d="M 37.796875 64.3125 
L 12.890625 25.390625 
L 37.796875 25.390625 
z
M 35.203125 72.90625 
L 47.609375 72.90625 
L 47.609375 25.390625 
L 58.015625 25.390625 
L 58.015625 17.1875 
L 47.609375 17.1875 
L 47.609375 0 
L 37.796875 0 
L 37.796875 17.1875 
L 4.890625 17.1875 
L 4.890625 26.703125 
z
" id="BitstreamVeraSans-Roman-34"/>
      </defs>
      <g transform="translate(302.520717891 985.118125)scale(0.12 -0.12)">
       <use xlink:href="#BitstreamVeraSans-Roman-30"/>
       <use x="63.623046875" xlink:href="#BitstreamVeraSans-Roman-2e"/>
       <use x="95.41015625" xlink:href="#BitstreamVeraSans-Roman-34"/>
      </g>
     </g>
    </g>
    <g id="xtick_6">
     <g id="line2d_11">
      <g>
       <use style="stroke:#000000;stroke-width:0.5;" x="147.078241114" xlink:href="#m47c8d2a495" y="972.0"/>
      </g>
     </g>
     <g id="line2d_12">
      <g>
       <use style="stroke:#000000;stroke-width:0.5;" x="147.078241114" xlink:href="#m05449ac432" y="108.0"/>
      </g>
     </g>
     <g id="text_6">
      <!-- 0.5 -->
      <defs>
       <path d="M 10.796875 72.90625 
L 49.515625 72.90625 
L 49.515625 64.59375 
L 19.828125 64.59375 
L 19.828125 46.734375 
Q 21.96875 47.46875 24.109375 47.828125 
Q 26.265625 48.1875 28.421875 48.1875 
Q 40.625 48.1875 47.75 41.5 
Q 54.890625 34.8125 54.890625 23.390625 
Q 54.890625 11.625 47.5625 5.09375 
Q 40.234375 -1.421875 26.90625 -1.421875 
Q 22.3125 -1.421875 17.546875 -0.640625 
Q 12.796875 0.140625 7.71875 1.703125 
L 7.71875 11.625 
Q 12.109375 9.234375 16.796875 8.0625 
Q 21.484375 6.890625 26.703125 6.890625 
Q 35.15625 6.890625 40.078125 11.328125 
Q 45.015625 15.765625 45.015625 23.390625 
Q 45.015625 31 40.078125 35.4375 
Q 35.15625 39.890625 26.703125 39.890625 
Q 22.75 39.890625 18.8125 39.015625 
Q 14.890625 38.140625 10.796875 36.28125 
z
" id="BitstreamVeraSans-Roman-35"/>
      </defs>
      <g transform="translate(137.536366114 985.118125)scale(0.12 -0.12)">
       <use xlink:href="#BitstreamVeraSans-Roman-30"/>
       <use x="63.623046875" xlink:href="#BitstreamVeraSans-Roman-2e"/>
       <use x="95.41015625" xlink:href="#BitstreamVeraSans-Roman-35"/>
      </g>
     </g>
    </g>
   </g>
   <g id="matplotlib.axis_2">
    <g id="ytick_1">
     <g id="text_7">
      <!-- 46 -->
      <defs>
       <path d="M 33.015625 40.375 
Q 26.375 40.375 22.484375 35.828125 
Q 18.609375 31.296875 18.609375 23.390625 
Q 18.609375 15.53125 22.484375 10.953125 
Q 26.375 6.390625 33.015625 6.390625 
Q 39.65625 6.390625 43.53125 10.953125 
Q 47.40625 15.53125 47.40625 23.390625 
Q 47.40625 31.296875 43.53125 35.828125 
Q 39.65625 40.375 33.015625 40.375 
M 52.59375 71.296875 
L 52.59375 62.3125 
Q 48.875 64.0625 45.09375 64.984375 
Q 41.3125 65.921875 37.59375 65.921875 
Q 27.828125 65.921875 22.671875 59.328125 
Q 17.53125 52.734375 16.796875 39.40625 
Q 19.671875 43.65625 24.015625 45.921875 
Q 28.375 48.1875 33.59375 48.1875 
Q 44.578125 48.1875 50.953125 41.515625 
Q 57.328125 34.859375 57.328125 23.390625 
Q 57.328125 12.15625 50.6875 5.359375 
Q 44.046875 -1.421875 33.015625 -1.421875 
Q 20.359375 -1.421875 13.671875 8.265625 
Q 6.984375 17.96875 6.984375 36.375 
Q 6.984375 53.65625 15.1875 63.9375 
Q 23.390625 74.21875 37.203125 74.21875 
Q 40.921875 74.21875 44.703125 73.484375 
Q 48.484375 72.75 52.59375 71.296875 
" id="BitstreamVeraSans-Roman-36"/>
      </defs>
      <g transform="translate(976.0 969.452414773)scale(0.05 -0.05)">
       <use xlink:href="#BitstreamVeraSans-Roman-34"/>
       <use x="63.623046875" xlink:href="#BitstreamVeraSans-Roman-36"/>
      </g>
     </g>
    </g>
    <g id="ytick_2">
     <g id="text_8">
      <!-- 72 -->
      <defs>
       <path d="M 8.203125 72.90625 
L 55.078125 72.90625 
L 55.078125 68.703125 
L 28.609375 0 
L 18.3125 0 
L 43.21875 64.59375 
L 8.203125 64.59375 
z
" id="BitstreamVeraSans-Roman-37"/>
      </defs>
      <g transform="translate(976.0 961.597869318)scale(0.05 -0.05)">
       <use xlink:href="#BitstreamVeraSans-Roman-37"/>
       <use x="63.623046875" xlink:href="#BitstreamVeraSans-Roman-32"/>
      </g>
     </g>
    </g>
    <g id="ytick_3">
     <g id="text_9">
      <!-- 114 -->
      <g transform="translate(976.0 953.743323864)scale(0.05 -0.05)">
       <use xlink:href="#BitstreamVeraSans-Roman-31"/>
       <use x="63.623046875" xlink:href="#BitstreamVeraSans-Roman-31"/>
       <use x="127.24609375" xlink:href="#BitstreamVeraSans-Roman-34"/>
      </g>
     </g>
    </g>
    <g id="ytick_4">
     <g id="text_10">
      <!-- 90 -->
      <defs>
       <path d="M 10.984375 1.515625 
L 10.984375 10.5 
Q 14.703125 8.734375 18.5 7.8125 
Q 22.3125 6.890625 25.984375 6.890625 
Q 35.75 6.890625 40.890625 13.453125 
Q 46.046875 20.015625 46.78125 33.40625 
Q 43.953125 29.203125 39.59375 26.953125 
Q 35.25 24.703125 29.984375 24.703125 
Q 19.046875 24.703125 12.671875 31.3125 
Q 6.296875 37.9375 6.296875 49.421875 
Q 6.296875 60.640625 12.9375 67.421875 
Q 19.578125 74.21875 30.609375 74.21875 
Q 43.265625 74.21875 49.921875 64.515625 
Q 56.59375 54.828125 56.59375 36.375 
Q 56.59375 19.140625 48.40625 8.859375 
Q 40.234375 -1.421875 26.421875 -1.421875 
Q 22.703125 -1.421875 18.890625 -0.6875 
Q 15.09375 0.046875 10.984375 1.515625 
M 30.609375 32.421875 
Q 37.25 32.421875 41.125 36.953125 
Q 45.015625 41.5 45.015625 49.421875 
Q 45.015625 57.28125 41.125 61.84375 
Q 37.25 66.40625 30.609375 66.40625 
Q 23.96875 66.40625 20.09375 61.84375 
Q 16.21875 57.28125 16.21875 49.421875 
Q 16.21875 41.5 20.09375 36.953125 
Q 23.96875 32.421875 30.609375 32.421875 
" id="BitstreamVeraSans-Roman-39"/>
      </defs>
      <g transform="translate(976.0 945.888778409)scale(0.05 -0.05)">
       <use xlink:href="#BitstreamVeraSans-Roman-39"/>
       <use x="63.623046875" xlink:href="#BitstreamVeraSans-Roman-30"/>
      </g>
     </g>
    </g>
    <g id="ytick_5">
     <g id="text_11">
      <!-- 97 -->
      <g transform="translate(976.0 938.034232955)scale(0.05 -0.05)">
       <use xlink:href="#BitstreamVeraSans-Roman-39"/>
       <use x="63.623046875" xlink:href="#BitstreamVeraSans-Roman-37"/>
      </g>
     </g>
    </g>
    <g id="ytick_6">
     <g id="text_12">
      <!-- 59 -->
      <g transform="translate(976.0 930.1796875)scale(0.05 -0.05)">
       <use xlink:href="#BitstreamVeraSans-Roman-35"/>
       <use x="63.623046875" xlink:href="#BitstreamVeraSans-Roman-39"/>
      </g>
     </g>
    </g>
    <g id="ytick_7">
     <g id="text_13">
      <!-- 13 -->
      <g transform="translate(976.0 922.325142045)scale(0.05 -0.05)">
       <use xlink:href="#BitstreamVeraSans-Roman-31"/>
       <use x="63.623046875" xlink:href="#BitstreamVeraSans-Roman-33"/>
      </g>
     </g>
    </g>
    <g id="ytick_8">
     <g id="text_14">
      <!-- 103 -->
      <g transform="translate(976.0 914.470596591)scale(0.05 -0.05)">
       <use xlink:href="#BitstreamVeraSans-Roman-31"/>
       <use x="63.623046875" xlink:href="#BitstreamVeraSans-Roman-30"/>
       <use x="127.24609375" xlink:href="#BitstreamVeraSans-Roman-33"/>
      </g>
     </g>
    </g>
    <g id="ytick_9">
     <g id="text_15">
      <!-- 23 -->
      <g transform="translate(976.0 906.616051136)scale(0.05 -0.05)">
       <use xlink:href="#BitstreamVeraSans-Roman-32"/>
       <use x="63.623046875" xlink:href="#BitstreamVeraSans-Roman-33"/>
      </g>
     </g>
    </g>
    <g id="ytick_10">
     <g id="text_16">
      <!-- 32 -->
      <g transform="translate(976.0 898.761505682)scale(0.05 -0.05)">
       <use xlink:href="#BitstreamVeraSans-Roman-33"/>
       <use x="63.623046875" xlink:href="#BitstreamVeraSans-Roman-32"/>
      </g>
     </g>
    </g>
    <g id="ytick_11">
     <g id="text_17">
      <!-- 26 -->
      <g transform="translate(976.0 890.906960227)scale(0.05 -0.05)">
       <use xlink:href="#BitstreamVeraSans-Roman-32"/>
       <use x="63.623046875" xlink:href="#BitstreamVeraSans-Roman-36"/>
      </g>
     </g>
    </g>
    <g id="ytick_12">
     <g id="text_18">
      <!-- 69 -->
      <g transform="translate(976.0 883.052414773)scale(0.05 -0.05)">
       <use xlink:href="#BitstreamVeraSans-Roman-36"/>
       <use x="63.623046875" xlink:href="#BitstreamVeraSans-Roman-39"/>
      </g>
     </g>
    </g>
    <g id="ytick_13">
     <g id="text_19">
      <!-- 77 -->
      <g transform="translate(976.0 875.197869318)scale(0.05 -0.05)">
       <use xlink:href="#BitstreamVeraSans-Roman-37"/>
       <use x="63.623046875" xlink:href="#BitstreamVeraSans-Roman-37"/>
      </g>
     </g>
    </g>
    <g id="ytick_14">
     <g id="text_20">
      <!-- 1 -->
      <g transform="translate(976.0 867.343323864)scale(0.05 -0.05)">
       <use xlink:href="#BitstreamVeraSans-Roman-31"/>
      </g>
     </g>
    </g>
    <g id="ytick_15">
     <g id="text_21">
      <!-- 63 -->
      <g transform="translate(976.0 859.488778409)scale(0.05 -0.05)">
       <use xlink:href="#BitstreamVeraSans-Roman-36"/>
       <use x="63.623046875" xlink:href="#BitstreamVeraSans-Roman-33"/>
      </g>
     </g>
    </g>
    <g id="ytick_16">
     <g id="text_22">
      <!-- 89 -->
      <defs>
       <path d="M 31.78125 34.625 
Q 24.75 34.625 20.71875 30.859375 
Q 16.703125 27.09375 16.703125 20.515625 
Q 16.703125 13.921875 20.71875 10.15625 
Q 24.75 6.390625 31.78125 6.390625 
Q 38.8125 6.390625 42.859375 10.171875 
Q 46.921875 13.96875 46.921875 20.515625 
Q 46.921875 27.09375 42.890625 30.859375 
Q 38.875 34.625 31.78125 34.625 
M 21.921875 38.8125 
Q 15.578125 40.375 12.03125 44.71875 
Q 8.5 49.078125 8.5 55.328125 
Q 8.5 64.0625 14.71875 69.140625 
Q 20.953125 74.21875 31.78125 74.21875 
Q 42.671875 74.21875 48.875 69.140625 
Q 55.078125 64.0625 55.078125 55.328125 
Q 55.078125 49.078125 51.53125 44.71875 
Q 48 40.375 41.703125 38.8125 
Q 48.828125 37.15625 52.796875 32.3125 
Q 56.78125 27.484375 56.78125 20.515625 
Q 56.78125 9.90625 50.3125 4.234375 
Q 43.84375 -1.421875 31.78125 -1.421875 
Q 19.734375 -1.421875 13.25 4.234375 
Q 6.78125 9.90625 6.78125 20.515625 
Q 6.78125 27.484375 10.78125 32.3125 
Q 14.796875 37.15625 21.921875 38.8125 
M 18.3125 54.390625 
Q 18.3125 48.734375 21.84375 45.5625 
Q 25.390625 42.390625 31.78125 42.390625 
Q 38.140625 42.390625 41.71875 45.5625 
Q 45.3125 48.734375 45.3125 54.390625 
Q 45.3125 60.0625 41.71875 63.234375 
Q 38.140625 66.40625 31.78125 66.40625 
Q 25.390625 66.40625 21.84375 63.234375 
Q 18.3125 60.0625 18.3125 54.390625 
" id="BitstreamVeraSans-Roman-38"/>
      </defs>
      <g transform="translate(976.0 851.634232955)scale(0.05 -0.05)">
       <use xlink:href="#BitstreamVeraSans-Roman-38"/>
       <use x="63.623046875" xlink:href="#BitstreamVeraSans-Roman-39"/>
      </g>
     </g>
    </g>
    <g id="ytick_17">
     <g id="text_23">
      <!-- 98 -->
      <g transform="translate(976.0 843.7796875)scale(0.05 -0.05)">
       <use xlink:href="#BitstreamVeraSans-Roman-39"/>
       <use x="63.623046875" xlink:href="#BitstreamVeraSans-Roman-38"/>
      </g>
     </g>
    </g>
    <g id="ytick_18">
     <g id="text_24">
      <!-- 35 -->
      <g transform="translate(976.0 835.925142045)scale(0.05 -0.05)">
       <use xlink:href="#BitstreamVeraSans-Roman-33"/>
       <use x="63.623046875" xlink:href="#BitstreamVeraSans-Roman-35"/>
      </g>
     </g>
    </g>
    <g id="ytick_19">
     <g id="text_25">
      <!-- 76 -->
      <g transform="translate(976.0 828.070596591)scale(0.05 -0.05)">
       <use xlink:href="#BitstreamVeraSans-Roman-37"/>
       <use x="63.623046875" xlink:href="#BitstreamVeraSans-Roman-36"/>
      </g>
     </g>
    </g>
    <g id="ytick_20">
     <g id="text_26">
      <!-- 107 -->
      <g transform="translate(976.0 820.216051136)scale(0.05 -0.05)">
       <use xlink:href="#BitstreamVeraSans-Roman-31"/>
       <use x="63.623046875" xlink:href="#BitstreamVeraSans-Roman-30"/>
       <use x="127.24609375" xlink:href="#BitstreamVeraSans-Roman-37"/>
      </g>
     </g>
    </g>
    <g id="ytick_21">
     <g id="text_27">
      <!-- 68 -->
      <g transform="translate(976.0 812.361505682)scale(0.05 -0.05)">
       <use xlink:href="#BitstreamVeraSans-Roman-36"/>
       <use x="63.623046875" xlink:href="#BitstreamVeraSans-Roman-38"/>
      </g>
     </g>
    </g>
    <g id="ytick_22">
     <g id="text_28">
      <!-- 70 -->
      <g transform="translate(976.0 804.506960227)scale(0.05 -0.05)">
       <use xlink:href="#BitstreamVeraSans-Roman-37"/>
       <use x="63.623046875" xlink:href="#BitstreamVeraSans-Roman-30"/>
      </g>
     </g>
    </g>
    <g id="ytick_23">
     <g id="text_29">
      <!-- 99 -->
      <g transform="translate(976.0 796.652414773)scale(0.05 -0.05)">
       <use xlink:href="#BitstreamVeraSans-Roman-39"/>
       <use x="63.623046875" xlink:href="#BitstreamVeraSans-Roman-39"/>
      </g>
     </g>
    </g>
    <g id="ytick_24">
     <g id="text_30">
      <!-- 31 -->
      <g transform="translate(976.0 788.797869318)scale(0.05 -0.05)">
       <use xlink:href="#BitstreamVeraSans-Roman-33"/>
       <use x="63.623046875" xlink:href="#BitstreamVeraSans-Roman-31"/>
      </g>
     </g>
    </g>
    <g id="ytick_25">
     <g id="text_31">
      <!-- 60 -->
      <g transform="translate(976.0 780.943323864)scale(0.05 -0.05)">
       <use xlink:href="#BitstreamVeraSans-Roman-36"/>
       <use x="63.623046875" xlink:href="#BitstreamVeraSans-Roman-30"/>
      </g>
     </g>
    </g>
    <g id="ytick_26">
     <g id="text_32">
      <!-- 34 -->
      <g transform="translate(976.0 773.088778409)scale(0.05 -0.05)">
       <use xlink:href="#BitstreamVeraSans-Roman-33"/>
       <use x="63.623046875" xlink:href="#BitstreamVeraSans-Roman-34"/>
      </g>
     </g>
    </g>
    <g id="ytick_27">
     <g id="text_33">
      <!-- 65 -->
      <g transform="translate(976.0 765.234232955)scale(0.05 -0.05)">
       <use xlink:href="#BitstreamVeraSans-Roman-36"/>
       <use x="63.623046875" xlink:href="#BitstreamVeraSans-Roman-35"/>
      </g>
     </g>
    </g>
    <g id="ytick_28">
     <g id="text_34">
      <!-- 79 -->
      <g transform="translate(976.0 757.3796875)scale(0.05 -0.05)">
       <use xlink:href="#BitstreamVeraSans-Roman-37"/>
       <use x="63.623046875" xlink:href="#BitstreamVeraSans-Roman-39"/>
      </g>
     </g>
    </g>
    <g id="ytick_29">
     <g id="text_35">
      <!-- 67 -->
      <g transform="translate(976.0 749.525142045)scale(0.05 -0.05)">
       <use xlink:href="#BitstreamVeraSans-Roman-36"/>
       <use x="63.623046875" xlink:href="#BitstreamVeraSans-Roman-37"/>
      </g>
     </g>
    </g>
    <g id="ytick_30">
     <g id="text_36">
      <!-- 53 -->
      <g transform="translate(976.0 741.670596591)scale(0.05 -0.05)">
       <use xlink:href="#BitstreamVeraSans-Roman-35"/>
       <use x="63.623046875" xlink:href="#BitstreamVeraSans-Roman-33"/>
      </g>
     </g>
    </g>
    <g id="ytick_31">
     <g id="text_37">
      <!-- 88 -->
      <g transform="translate(976.0 733.816051136)scale(0.05 -0.05)">
       <use xlink:href="#BitstreamVeraSans-Roman-38"/>
       <use x="63.623046875" xlink:href="#BitstreamVeraSans-Roman-38"/>
      </g>
     </g>
    </g>
    <g id="ytick_32">
     <g id="text_38">
      <!-- 81 -->
      <g transform="translate(976.0 725.961505682)scale(0.05 -0.05)">
       <use xlink:href="#BitstreamVeraSans-Roman-38"/>
       <use x="63.623046875" xlink:href="#BitstreamVeraSans-Roman-31"/>
      </g>
     </g>
    </g>
    <g id="ytick_33">
     <g id="text_39">
      <!-- 100 -->
      <g transform="translate(976.0 718.106960227)scale(0.05 -0.05)">
       <use xlink:href="#BitstreamVeraSans-Roman-31"/>
       <use x="63.623046875" xlink:href="#BitstreamVeraSans-Roman-30"/>
       <use x="127.24609375" xlink:href="#BitstreamVeraSans-Roman-30"/>
      </g>
     </g>
    </g>
    <g id="ytick_34">
     <g id="text_40">
      <!-- 73 -->
      <g transform="translate(976.0 710.252414773)scale(0.05 -0.05)">
       <use xlink:href="#BitstreamVeraSans-Roman-37"/>
       <use x="63.623046875" xlink:href="#BitstreamVeraSans-Roman-33"/>
      </g>
     </g>
    </g>
    <g id="ytick_35">
     <g id="text_41">
      <!-- 102 -->
      <g transform="translate(976.0 702.397869318)scale(0.05 -0.05)">
       <use xlink:href="#BitstreamVeraSans-Roman-31"/>
       <use x="63.623046875" xlink:href="#BitstreamVeraSans-Roman-30"/>
       <use x="127.24609375" xlink:href="#BitstreamVeraSans-Roman-32"/>
      </g>
     </g>
    </g>
    <g id="ytick_36">
     <g id="text_42">
      <!-- 82 -->
      <g transform="translate(976.0 694.543323864)scale(0.05 -0.05)">
       <use xlink:href="#BitstreamVeraSans-Roman-38"/>
       <use x="63.623046875" xlink:href="#BitstreamVeraSans-Roman-32"/>
      </g>
     </g>
    </g>
    <g id="ytick_37">
     <g id="text_43">
      <!-- 85 -->
      <g transform="translate(976.0 686.688778409)scale(0.05 -0.05)">
       <use xlink:href="#BitstreamVeraSans-Roman-38"/>
       <use x="63.623046875" xlink:href="#BitstreamVeraSans-Roman-35"/>
      </g>
     </g>
    </g>
    <g id="ytick_38">
     <g id="text_44">
      <!-- 93 -->
      <g transform="translate(976.0 678.834232955)scale(0.05 -0.05)">
       <use xlink:href="#BitstreamVeraSans-Roman-39"/>
       <use x="63.623046875" xlink:href="#BitstreamVeraSans-Roman-33"/>
      </g>
     </g>
    </g>
    <g id="ytick_39">
     <g id="text_45">
      <!-- 24 -->
      <g transform="translate(976.0 670.9796875)scale(0.05 -0.05)">
       <use xlink:href="#BitstreamVeraSans-Roman-32"/>
       <use x="63.623046875" xlink:href="#BitstreamVeraSans-Roman-34"/>
      </g>
     </g>
    </g>
    <g id="ytick_40">
     <g id="text_46">
      <!-- 52 -->
      <g transform="translate(976.0 663.125142045)scale(0.05 -0.05)">
       <use xlink:href="#BitstreamVeraSans-Roman-35"/>
       <use x="63.623046875" xlink:href="#BitstreamVeraSans-Roman-32"/>
      </g>
     </g>
    </g>
    <g id="ytick_41">
     <g id="text_47">
      <!-- 57 -->
      <g transform="translate(976.0 655.270596591)scale(0.05 -0.05)">
       <use xlink:href="#BitstreamVeraSans-Roman-35"/>
       <use x="63.623046875" xlink:href="#BitstreamVeraSans-Roman-37"/>
      </g>
     </g>
    </g>
    <g id="ytick_42">
     <g id="text_48">
      <!-- 101 -->
      <g transform="translate(976.0 647.416051136)scale(0.05 -0.05)">
       <use xlink:href="#BitstreamVeraSans-Roman-31"/>
       <use x="63.623046875" xlink:href="#BitstreamVeraSans-Roman-30"/>
       <use x="127.24609375" xlink:href="#BitstreamVeraSans-Roman-31"/>
      </g>
     </g>
    </g>
    <g id="ytick_43">
     <g id="text_49">
      <!-- 58 -->
      <g transform="translate(976.0 639.561505682)scale(0.05 -0.05)">
       <use xlink:href="#BitstreamVeraSans-Roman-35"/>
       <use x="63.623046875" xlink:href="#BitstreamVeraSans-Roman-38"/>
      </g>
     </g>
    </g>
    <g id="ytick_44">
     <g id="text_50">
      <!-- 62 -->
      <g transform="translate(976.0 631.706960227)scale(0.05 -0.05)">
       <use xlink:href="#BitstreamVeraSans-Roman-36"/>
       <use x="63.623046875" xlink:href="#BitstreamVeraSans-Roman-32"/>
      </g>
     </g>
    </g>
    <g id="ytick_45">
     <g id="text_51">
      <!-- 50 -->
      <g transform="translate(976.0 623.852414773)scale(0.05 -0.05)">
       <use xlink:href="#BitstreamVeraSans-Roman-35"/>
       <use x="63.623046875" xlink:href="#BitstreamVeraSans-Roman-30"/>
      </g>
     </g>
    </g>
    <g id="ytick_46">
     <g id="text_52">
      <!-- 87 -->
      <g transform="translate(976.0 615.997869318)scale(0.05 -0.05)">
       <use xlink:href="#BitstreamVeraSans-Roman-38"/>
       <use x="63.623046875" xlink:href="#BitstreamVeraSans-Roman-37"/>
      </g>
     </g>
    </g>
    <g id="ytick_47">
     <g id="text_53">
      <!-- 91 -->
      <g transform="translate(976.0 608.143323864)scale(0.05 -0.05)">
       <use xlink:href="#BitstreamVeraSans-Roman-39"/>
       <use x="63.623046875" xlink:href="#BitstreamVeraSans-Roman-31"/>
      </g>
     </g>
    </g>
    <g id="ytick_48">
     <g id="text_54">
      <!-- 8 -->
      <g transform="translate(976.0 600.288778409)scale(0.05 -0.05)">
       <use xlink:href="#BitstreamVeraSans-Roman-38"/>
      </g>
     </g>
    </g>
    <g id="ytick_49">
     <g id="text_55">
      <!-- 12 -->
      <g transform="translate(976.0 592.434232955)scale(0.05 -0.05)">
       <use xlink:href="#BitstreamVeraSans-Roman-31"/>
       <use x="63.623046875" xlink:href="#BitstreamVeraSans-Roman-32"/>
      </g>
     </g>
    </g>
    <g id="ytick_50">
     <g id="text_56">
      <!-- 108 -->
      <g transform="translate(976.0 584.5796875)scale(0.05 -0.05)">
       <use xlink:href="#BitstreamVeraSans-Roman-31"/>
       <use x="63.623046875" xlink:href="#BitstreamVeraSans-Roman-30"/>
       <use x="127.24609375" xlink:href="#BitstreamVeraSans-Roman-38"/>
      </g>
     </g>
    </g>
    <g id="ytick_51">
     <g id="text_57">
      <!-- 30 -->
      <g transform="translate(976.0 576.725142045)scale(0.05 -0.05)">
       <use xlink:href="#BitstreamVeraSans-Roman-33"/>
       <use x="63.623046875" xlink:href="#BitstreamVeraSans-Roman-30"/>
      </g>
     </g>
    </g>
    <g id="ytick_52">
     <g id="text_58">
      <!-- 33 -->
      <g transform="translate(976.0 568.870596591)scale(0.05 -0.05)">
       <use xlink:href="#BitstreamVeraSans-Roman-33"/>
       <use x="63.623046875" xlink:href="#BitstreamVeraSans-Roman-33"/>
      </g>
     </g>
    </g>
    <g id="ytick_53">
     <g id="text_59">
      <!-- 19 -->
      <g transform="translate(976.0 561.016051136)scale(0.05 -0.05)">
       <use xlink:href="#BitstreamVeraSans-Roman-31"/>
       <use x="63.623046875" xlink:href="#BitstreamVeraSans-Roman-39"/>
      </g>
     </g>
    </g>
    <g id="ytick_54">
     <g id="text_60">
      <!-- 92 -->
      <g transform="translate(976.0 553.161505682)scale(0.05 -0.05)">
       <use xlink:href="#BitstreamVeraSans-Roman-39"/>
       <use x="63.623046875" xlink:href="#BitstreamVeraSans-Roman-32"/>
      </g>
     </g>
    </g>
    <g id="ytick_55">
     <g id="text_61">
      <!-- 113 -->
      <g transform="translate(976.0 545.306960227)scale(0.05 -0.05)">
       <use xlink:href="#BitstreamVeraSans-Roman-31"/>
       <use x="63.623046875" xlink:href="#BitstreamVeraSans-Roman-31"/>
       <use x="127.24609375" xlink:href="#BitstreamVeraSans-Roman-33"/>
      </g>
     </g>
    </g>
    <g id="ytick_56">
     <g id="text_62">
      <!-- 71 -->
      <g transform="translate(976.0 537.452414773)scale(0.05 -0.05)">
       <use xlink:href="#BitstreamVeraSans-Roman-37"/>
       <use x="63.623046875" xlink:href="#BitstreamVeraSans-Roman-31"/>
      </g>
     </g>
    </g>
    <g id="ytick_57">
     <g id="text_63">
      <!-- 84 -->
      <g transform="translate(976.0 529.597869318)scale(0.05 -0.05)">
       <use xlink:href="#BitstreamVeraSans-Roman-38"/>
       <use x="63.623046875" xlink:href="#BitstreamVeraSans-Roman-34"/>
      </g>
     </g>
    </g>
    <g id="ytick_58">
     <g id="text_64">
      <!-- 86 -->
      <g transform="translate(976.0 521.743323864)scale(0.05 -0.05)">
       <use xlink:href="#BitstreamVeraSans-Roman-38"/>
       <use x="63.623046875" xlink:href="#BitstreamVeraSans-Roman-36"/>
      </g>
     </g>
    </g>
    <g id="ytick_59">
     <g id="text_65">
      <!-- 94 -->
      <g transform="translate(976.0 513.888778409)scale(0.05 -0.05)">
       <use xlink:href="#BitstreamVeraSans-Roman-39"/>
       <use x="63.623046875" xlink:href="#BitstreamVeraSans-Roman-34"/>
      </g>
     </g>
    </g>
    <g id="ytick_60">
     <g id="text_66">
      <!-- 25 -->
      <g transform="translate(976.0 506.034232955)scale(0.05 -0.05)">
       <use xlink:href="#BitstreamVeraSans-Roman-32"/>
       <use x="63.623046875" xlink:href="#BitstreamVeraSans-Roman-35"/>
      </g>
     </g>
    </g>
    <g id="ytick_61">
     <g id="text_67">
      <!-- 49 -->
      <g transform="translate(976.0 498.1796875)scale(0.05 -0.05)">
       <use xlink:href="#BitstreamVeraSans-Roman-34"/>
       <use x="63.623046875" xlink:href="#BitstreamVeraSans-Roman-39"/>
      </g>
     </g>
    </g>
    <g id="ytick_62">
     <g id="text_68">
      <!-- 115 -->
      <g transform="translate(976.0 490.325142045)scale(0.05 -0.05)">
       <use xlink:href="#BitstreamVeraSans-Roman-31"/>
       <use x="63.623046875" xlink:href="#BitstreamVeraSans-Roman-31"/>
       <use x="127.24609375" xlink:href="#BitstreamVeraSans-Roman-35"/>
      </g>
     </g>
    </g>
    <g id="ytick_63">
     <g id="text_69">
      <!-- 75 -->
      <g transform="translate(976.0 482.470596591)scale(0.05 -0.05)">
       <use xlink:href="#BitstreamVeraSans-Roman-37"/>
       <use x="63.623046875" xlink:href="#BitstreamVeraSans-Roman-35"/>
      </g>
     </g>
    </g>
    <g id="ytick_64">
     <g id="text_70">
      <!-- 28 -->
      <g transform="translate(976.0 474.616051136)scale(0.05 -0.05)">
       <use xlink:href="#BitstreamVeraSans-Roman-32"/>
       <use x="63.623046875" xlink:href="#BitstreamVeraSans-Roman-38"/>
      </g>
     </g>
    </g>
    <g id="ytick_65">
     <g id="text_71">
      <!-- 56 -->
      <g transform="translate(976.0 466.761505682)scale(0.05 -0.05)">
       <use xlink:href="#BitstreamVeraSans-Roman-35"/>
       <use x="63.623046875" xlink:href="#BitstreamVeraSans-Roman-36"/>
      </g>
     </g>
    </g>
    <g id="ytick_66">
     <g id="text_72">
      <!-- resistant95 -->
      <defs>
       <path d="M 54.890625 33.015625 
L 54.890625 0 
L 45.90625 0 
L 45.90625 32.71875 
Q 45.90625 40.484375 42.875 44.328125 
Q 39.84375 48.1875 33.796875 48.1875 
Q 26.515625 48.1875 22.3125 43.546875 
Q 18.109375 38.921875 18.109375 30.90625 
L 18.109375 0 
L 9.078125 0 
L 9.078125 54.6875 
L 18.109375 54.6875 
L 18.109375 46.1875 
Q 21.34375 51.125 25.703125 53.5625 
Q 30.078125 56 35.796875 56 
Q 45.21875 56 50.046875 50.171875 
Q 54.890625 44.34375 54.890625 33.015625 
" id="BitstreamVeraSans-Roman-6e"/>
       <path d="M 34.28125 27.484375 
Q 23.390625 27.484375 19.1875 25 
Q 14.984375 22.515625 14.984375 16.5 
Q 14.984375 11.71875 18.140625 8.90625 
Q 21.296875 6.109375 26.703125 6.109375 
Q 34.1875 6.109375 38.703125 11.40625 
Q 43.21875 16.703125 43.21875 25.484375 
L 43.21875 27.484375 
z
M 52.203125 31.203125 
L 52.203125 0 
L 43.21875 0 
L 43.21875 8.296875 
Q 40.140625 3.328125 35.546875 0.953125 
Q 30.953125 -1.421875 24.3125 -1.421875 
Q 15.921875 -1.421875 10.953125 3.296875 
Q 6 8.015625 6 15.921875 
Q 6 25.140625 12.171875 29.828125 
Q 18.359375 34.515625 30.609375 34.515625 
L 43.21875 34.515625 
L 43.21875 35.40625 
Q 43.21875 41.609375 39.140625 45 
Q 35.0625 48.390625 27.6875 48.390625 
Q 23 48.390625 18.546875 47.265625 
Q 14.109375 46.140625 10.015625 43.890625 
L 10.015625 52.203125 
Q 14.9375 54.109375 19.578125 55.046875 
Q 24.21875 56 28.609375 56 
Q 40.484375 56 46.34375 49.84375 
Q 52.203125 43.703125 52.203125 31.203125 
" id="BitstreamVeraSans-Roman-61"/>
       <path d="M 9.421875 54.6875 
L 18.40625 54.6875 
L 18.40625 0 
L 9.421875 0 
z
M 9.421875 75.984375 
L 18.40625 75.984375 
L 18.40625 64.59375 
L 9.421875 64.59375 
z
" id="BitstreamVeraSans-Roman-69"/>
       <path d="M 56.203125 29.59375 
L 56.203125 25.203125 
L 14.890625 25.203125 
Q 15.484375 15.921875 20.484375 11.0625 
Q 25.484375 6.203125 34.421875 6.203125 
Q 39.59375 6.203125 44.453125 7.46875 
Q 49.3125 8.734375 54.109375 11.28125 
L 54.109375 2.78125 
Q 49.265625 0.734375 44.1875 -0.34375 
Q 39.109375 -1.421875 33.890625 -1.421875 
Q 20.796875 -1.421875 13.15625 6.1875 
Q 5.515625 13.8125 5.515625 26.8125 
Q 5.515625 40.234375 12.765625 48.109375 
Q 20.015625 56 32.328125 56 
Q 43.359375 56 49.78125 48.890625 
Q 56.203125 41.796875 56.203125 29.59375 
M 47.21875 32.234375 
Q 47.125 39.59375 43.09375 43.984375 
Q 39.0625 48.390625 32.421875 48.390625 
Q 24.90625 48.390625 20.390625 44.140625 
Q 15.875 39.890625 15.1875 32.171875 
z
" id="BitstreamVeraSans-Roman-65"/>
       <path d="M 18.3125 70.21875 
L 18.3125 54.6875 
L 36.8125 54.6875 
L 36.8125 47.703125 
L 18.3125 47.703125 
L 18.3125 18.015625 
Q 18.3125 11.328125 20.140625 9.421875 
Q 21.96875 7.515625 27.59375 7.515625 
L 36.8125 7.515625 
L 36.8125 0 
L 27.59375 0 
Q 17.1875 0 13.234375 3.875 
Q 9.28125 7.765625 9.28125 18.015625 
L 9.28125 47.703125 
L 2.6875 47.703125 
L 2.6875 54.6875 
L 9.28125 54.6875 
L 9.28125 70.21875 
z
" id="BitstreamVeraSans-Roman-74"/>
       <path d="M 41.109375 46.296875 
Q 39.59375 47.171875 37.8125 47.578125 
Q 36.03125 48 33.890625 48 
Q 26.265625 48 22.1875 43.046875 
Q 18.109375 38.09375 18.109375 28.8125 
L 18.109375 0 
L 9.078125 0 
L 9.078125 54.6875 
L 18.109375 54.6875 
L 18.109375 46.1875 
Q 20.953125 51.171875 25.484375 53.578125 
Q 30.03125 56 36.53125 56 
Q 37.453125 56 38.578125 55.875 
Q 39.703125 55.765625 41.0625 55.515625 
z
" id="BitstreamVeraSans-Roman-72"/>
       <path d="M 44.28125 53.078125 
L 44.28125 44.578125 
Q 40.484375 46.53125 36.375 47.5 
Q 32.28125 48.484375 27.875 48.484375 
Q 21.1875 48.484375 17.84375 46.4375 
Q 14.5 44.390625 14.5 40.28125 
Q 14.5 37.15625 16.890625 35.375 
Q 19.28125 33.59375 26.515625 31.984375 
L 29.59375 31.296875 
Q 39.15625 29.25 43.1875 25.515625 
Q 47.21875 21.78125 47.21875 15.09375 
Q 47.21875 7.46875 41.1875 3.015625 
Q 35.15625 -1.421875 24.609375 -1.421875 
Q 20.21875 -1.421875 15.453125 -0.5625 
Q 10.6875 0.296875 5.421875 2 
L 5.421875 11.28125 
Q 10.40625 8.6875 15.234375 7.390625 
Q 20.0625 6.109375 24.8125 6.109375 
Q 31.15625 6.109375 34.5625 8.28125 
Q 37.984375 10.453125 37.984375 14.40625 
Q 37.984375 18.0625 35.515625 20.015625 
Q 33.0625 21.96875 24.703125 23.78125 
L 21.578125 24.515625 
Q 13.234375 26.265625 9.515625 29.90625 
Q 5.8125 33.546875 5.8125 39.890625 
Q 5.8125 47.609375 11.28125 51.796875 
Q 16.75 56 26.8125 56 
Q 31.78125 56 36.171875 55.265625 
Q 40.578125 54.546875 44.28125 53.078125 
" id="BitstreamVeraSans-Roman-73"/>
      </defs>
      <g transform="translate(976.0 458.906960227)scale(0.05 -0.05)">
       <use xlink:href="#BitstreamVeraSans-Roman-72"/>
       <use x="41.08203125" xlink:href="#BitstreamVeraSans-Roman-65"/>
       <use x="102.60546875" xlink:href="#BitstreamVeraSans-Roman-73"/>
       <use x="154.705078125" xlink:href="#BitstreamVeraSans-Roman-69"/>
       <use x="182.48828125" xlink:href="#BitstreamVeraSans-Roman-73"/>
       <use x="234.587890625" xlink:href="#BitstreamVeraSans-Roman-74"/>
       <use x="273.796875" xlink:href="#BitstreamVeraSans-Roman-61"/>
       <use x="335.076171875" xlink:href="#BitstreamVeraSans-Roman-6e"/>
       <use x="398.455078125" xlink:href="#BitstreamVeraSans-Roman-74"/>
       <use x="437.6640625" xlink:href="#BitstreamVeraSans-Roman-39"/>
       <use x="501.287109375" xlink:href="#BitstreamVeraSans-Roman-35"/>
      </g>
     </g>
    </g>
    <g id="ytick_67">
     <g id="text_73">
      <!-- 40 -->
      <g transform="translate(976.0 451.052414773)scale(0.05 -0.05)">
       <use xlink:href="#BitstreamVeraSans-Roman-34"/>
       <use x="63.623046875" xlink:href="#BitstreamVeraSans-Roman-30"/>
      </g>
     </g>
    </g>
    <g id="ytick_68">
     <g id="text_74">
      <!-- 7 -->
      <g transform="translate(976.0 443.197869318)scale(0.05 -0.05)">
       <use xlink:href="#BitstreamVeraSans-Roman-37"/>
      </g>
     </g>
    </g>
    <g id="ytick_69">
     <g id="text_75">
      <!-- 64 -->
      <g transform="translate(976.0 435.343323864)scale(0.05 -0.05)">
       <use xlink:href="#BitstreamVeraSans-Roman-36"/>
       <use x="63.623046875" xlink:href="#BitstreamVeraSans-Roman-34"/>
      </g>
     </g>
    </g>
    <g id="ytick_70">
     <g id="text_76">
      <!-- 5 -->
      <g transform="translate(976.0 427.488778409)scale(0.05 -0.05)">
       <use xlink:href="#BitstreamVeraSans-Roman-35"/>
      </g>
     </g>
    </g>
    <g id="ytick_71">
     <g id="text_77">
      <!-- 10 -->
      <g transform="translate(976.0 419.634232955)scale(0.05 -0.05)">
       <use xlink:href="#BitstreamVeraSans-Roman-31"/>
       <use x="63.623046875" xlink:href="#BitstreamVeraSans-Roman-30"/>
      </g>
     </g>
    </g>
    <g id="ytick_72">
     <g id="text_78">
      <!-- 3 -->
      <g transform="translate(976.0 411.7796875)scale(0.05 -0.05)">
       <use xlink:href="#BitstreamVeraSans-Roman-33"/>
      </g>
     </g>
    </g>
    <g id="ytick_73">
     <g id="text_79">
      <!-- 6 -->
      <g transform="translate(976.0 403.925142045)scale(0.05 -0.05)">
       <use xlink:href="#BitstreamVeraSans-Roman-36"/>
      </g>
     </g>
    </g>
    <g id="ytick_74">
     <g id="text_80">
      <!-- 15 -->
      <g transform="translate(976.0 396.070596591)scale(0.05 -0.05)">
       <use xlink:href="#BitstreamVeraSans-Roman-31"/>
       <use x="63.623046875" xlink:href="#BitstreamVeraSans-Roman-35"/>
      </g>
     </g>
    </g>
    <g id="ytick_75">
     <g id="text_81">
      <!-- 18 -->
      <g transform="translate(976.0 388.216051136)scale(0.05 -0.05)">
       <use xlink:href="#BitstreamVeraSans-Roman-31"/>
       <use x="63.623046875" xlink:href="#BitstreamVeraSans-Roman-38"/>
      </g>
     </g>
    </g>
    <g id="ytick_76">
     <g id="text_82">
      <!-- 16 -->
      <g transform="translate(976.0 380.361505682)scale(0.05 -0.05)">
       <use xlink:href="#BitstreamVeraSans-Roman-31"/>
       <use x="63.623046875" xlink:href="#BitstreamVeraSans-Roman-36"/>
      </g>
     </g>
    </g>
    <g id="ytick_77">
     <g id="text_83">
      <!-- 20 -->
      <g transform="translate(976.0 372.506960227)scale(0.05 -0.05)">
       <use xlink:href="#BitstreamVeraSans-Roman-32"/>
       <use x="63.623046875" xlink:href="#BitstreamVeraSans-Roman-30"/>
      </g>
     </g>
    </g>
    <g id="ytick_78">
     <g id="text_84">
      <!-- 110 -->
      <g transform="translate(976.0 364.652414773)scale(0.05 -0.05)">
       <use xlink:href="#BitstreamVeraSans-Roman-31"/>
       <use x="63.623046875" xlink:href="#BitstreamVeraSans-Roman-31"/>
       <use x="127.24609375" xlink:href="#BitstreamVeraSans-Roman-30"/>
      </g>
     </g>
    </g>
    <g id="ytick_79">
     <g id="text_85">
      <!-- 111 -->
      <g transform="translate(976.0 356.797869318)scale(0.05 -0.05)">
       <use xlink:href="#BitstreamVeraSans-Roman-31"/>
       <use x="63.623046875" xlink:href="#BitstreamVeraSans-Roman-31"/>
       <use x="127.24609375" xlink:href="#BitstreamVeraSans-Roman-31"/>
      </g>
     </g>
    </g>
    <g id="ytick_80">
     <g id="text_86">
      <!-- 54 -->
      <g transform="translate(976.0 348.943323864)scale(0.05 -0.05)">
       <use xlink:href="#BitstreamVeraSans-Roman-35"/>
       <use x="63.623046875" xlink:href="#BitstreamVeraSans-Roman-34"/>
      </g>
     </g>
    </g>
    <g id="ytick_81">
     <g id="text_87">
      <!-- 80 -->
      <g transform="translate(976.0 341.088778409)scale(0.05 -0.05)">
       <use xlink:href="#BitstreamVeraSans-Roman-38"/>
       <use x="63.623046875" xlink:href="#BitstreamVeraSans-Roman-30"/>
      </g>
     </g>
    </g>
    <g id="ytick_82">
     <g id="text_88">
      <!-- 4 -->
      <g transform="translate(976.0 333.234232955)scale(0.05 -0.05)">
       <use xlink:href="#BitstreamVeraSans-Roman-34"/>
      </g>
     </g>
    </g>
    <g id="ytick_83">
     <g id="text_89">
      <!-- 66 -->
      <g transform="translate(976.0 325.3796875)scale(0.05 -0.05)">
       <use xlink:href="#BitstreamVeraSans-Roman-36"/>
       <use x="63.623046875" xlink:href="#BitstreamVeraSans-Roman-36"/>
      </g>
     </g>
    </g>
    <g id="ytick_84">
     <g id="text_90">
      <!-- 27 -->
      <g transform="translate(976.0 317.525142045)scale(0.05 -0.05)">
       <use xlink:href="#BitstreamVeraSans-Roman-32"/>
       <use x="63.623046875" xlink:href="#BitstreamVeraSans-Roman-37"/>
      </g>
     </g>
    </g>
    <g id="ytick_85">
     <g id="text_91">
      <!-- 55 -->
      <g transform="translate(976.0 309.670596591)scale(0.05 -0.05)">
       <use xlink:href="#BitstreamVeraSans-Roman-35"/>
       <use x="63.623046875" xlink:href="#BitstreamVeraSans-Roman-35"/>
      </g>
     </g>
    </g>
    <g id="ytick_86">
     <g id="text_92">
      <!-- 2 -->
      <g transform="translate(976.0 301.816051136)scale(0.05 -0.05)">
       <use xlink:href="#BitstreamVeraSans-Roman-32"/>
      </g>
     </g>
    </g>
    <g id="ytick_87">
     <g id="text_93">
      <!-- 29 -->
      <g transform="translate(976.0 293.961505682)scale(0.05 -0.05)">
       <use xlink:href="#BitstreamVeraSans-Roman-32"/>
       <use x="63.623046875" xlink:href="#BitstreamVeraSans-Roman-39"/>
      </g>
     </g>
    </g>
    <g id="ytick_88">
     <g id="text_94">
      <!-- 48 -->
      <g transform="translate(976.0 286.106960227)scale(0.05 -0.05)">
       <use xlink:href="#BitstreamVeraSans-Roman-34"/>
       <use x="63.623046875" xlink:href="#BitstreamVeraSans-Roman-38"/>
      </g>
     </g>
    </g>
    <g id="ytick_89">
     <g id="text_95">
      <!-- resistant96 -->
      <g transform="translate(976.0 278.252414773)scale(0.05 -0.05)">
       <use xlink:href="#BitstreamVeraSans-Roman-72"/>
       <use x="41.08203125" xlink:href="#BitstreamVeraSans-Roman-65"/>
       <use x="102.60546875" xlink:href="#BitstreamVeraSans-Roman-73"/>
       <use x="154.705078125" xlink:href="#BitstreamVeraSans-Roman-69"/>
       <use x="182.48828125" xlink:href="#BitstreamVeraSans-Roman-73"/>
       <use x="234.587890625" xlink:href="#BitstreamVeraSans-Roman-74"/>
       <use x="273.796875" xlink:href="#BitstreamVeraSans-Roman-61"/>
       <use x="335.076171875" xlink:href="#BitstreamVeraSans-Roman-6e"/>
       <use x="398.455078125" xlink:href="#BitstreamVeraSans-Roman-74"/>
       <use x="437.6640625" xlink:href="#BitstreamVeraSans-Roman-39"/>
       <use x="501.287109375" xlink:href="#BitstreamVeraSans-Roman-36"/>
      </g>
     </g>
    </g>
    <g id="ytick_90">
     <g id="text_96">
      <!-- 116 -->
      <g transform="translate(976.0 270.397869318)scale(0.05 -0.05)">
       <use xlink:href="#BitstreamVeraSans-Roman-31"/>
       <use x="63.623046875" xlink:href="#BitstreamVeraSans-Roman-31"/>
       <use x="127.24609375" xlink:href="#BitstreamVeraSans-Roman-36"/>
      </g>
     </g>
    </g>
    <g id="ytick_91">
     <g id="text_97">
      <!-- 14 -->
      <g transform="translate(976.0 262.543323864)scale(0.05 -0.05)">
       <use xlink:href="#BitstreamVeraSans-Roman-31"/>
       <use x="63.623046875" xlink:href="#BitstreamVeraSans-Roman-34"/>
      </g>
     </g>
    </g>
    <g id="ytick_92">
     <g id="text_98">
      <!-- 17 -->
      <g transform="translate(976.0 254.688778409)scale(0.05 -0.05)">
       <use xlink:href="#BitstreamVeraSans-Roman-31"/>
       <use x="63.623046875" xlink:href="#BitstreamVeraSans-Roman-37"/>
      </g>
     </g>
    </g>
    <g id="ytick_93">
     <g id="text_99">
      <!-- 37 -->
      <g transform="translate(976.0 246.834232955)scale(0.05 -0.05)">
       <use xlink:href="#BitstreamVeraSans-Roman-33"/>
       <use x="63.623046875" xlink:href="#BitstreamVeraSans-Roman-37"/>
      </g>
     </g>
    </g>
    <g id="ytick_94">
     <g id="text_100">
      <!-- 39 -->
      <g transform="translate(976.0 238.9796875)scale(0.05 -0.05)">
       <use xlink:href="#BitstreamVeraSans-Roman-33"/>
       <use x="63.623046875" xlink:href="#BitstreamVeraSans-Roman-39"/>
      </g>
     </g>
    </g>
    <g id="ytick_95">
     <g id="text_101">
      <!-- resistant41 -->
      <g transform="translate(976.0 231.125142045)scale(0.05 -0.05)">
       <use xlink:href="#BitstreamVeraSans-Roman-72"/>
       <use x="41.08203125" xlink:href="#BitstreamVeraSans-Roman-65"/>
       <use x="102.60546875" xlink:href="#BitstreamVeraSans-Roman-73"/>
       <use x="154.705078125" xlink:href="#BitstreamVeraSans-Roman-69"/>
       <use x="182.48828125" xlink:href="#BitstreamVeraSans-Roman-73"/>
       <use x="234.587890625" xlink:href="#BitstreamVeraSans-Roman-74"/>
       <use x="273.796875" xlink:href="#BitstreamVeraSans-Roman-61"/>
       <use x="335.076171875" xlink:href="#BitstreamVeraSans-Roman-6e"/>
       <use x="398.455078125" xlink:href="#BitstreamVeraSans-Roman-74"/>
       <use x="437.6640625" xlink:href="#BitstreamVeraSans-Roman-34"/>
       <use x="501.287109375" xlink:href="#BitstreamVeraSans-Roman-31"/>
      </g>
     </g>
    </g>
    <g id="ytick_96">
     <g id="text_102">
      <!-- 11 -->
      <g transform="translate(976.0 223.270596591)scale(0.05 -0.05)">
       <use xlink:href="#BitstreamVeraSans-Roman-31"/>
       <use x="63.623046875" xlink:href="#BitstreamVeraSans-Roman-31"/>
      </g>
     </g>
    </g>
    <g id="ytick_97">
     <g id="text_103">
      <!-- resistant43 -->
      <g transform="translate(976.0 215.416051136)scale(0.05 -0.05)">
       <use xlink:href="#BitstreamVeraSans-Roman-72"/>
       <use x="41.08203125" xlink:href="#BitstreamVeraSans-Roman-65"/>
       <use x="102.60546875" xlink:href="#BitstreamVeraSans-Roman-73"/>
       <use x="154.705078125" xlink:href="#BitstreamVeraSans-Roman-69"/>
       <use x="182.48828125" xlink:href="#BitstreamVeraSans-Roman-73"/>
       <use x="234.587890625" xlink:href="#BitstreamVeraSans-Roman-74"/>
       <use x="273.796875" xlink:href="#BitstreamVeraSans-Roman-61"/>
       <use x="335.076171875" xlink:href="#BitstreamVeraSans-Roman-6e"/>
       <use x="398.455078125" xlink:href="#BitstreamVeraSans-Roman-74"/>
       <use x="437.6640625" xlink:href="#BitstreamVeraSans-Roman-34"/>
       <use x="501.287109375" xlink:href="#BitstreamVeraSans-Roman-33"/>
      </g>
     </g>
    </g>
    <g id="ytick_98">
     <g id="text_104">
      <!-- 74 -->
      <g transform="translate(976.0 207.561505682)scale(0.05 -0.05)">
       <use xlink:href="#BitstreamVeraSans-Roman-37"/>
       <use x="63.623046875" xlink:href="#BitstreamVeraSans-Roman-34"/>
      </g>
     </g>
    </g>
    <g id="ytick_99">
     <g id="text_105">
      <!-- 47 -->
      <g transform="translate(976.0 199.706960227)scale(0.05 -0.05)">
       <use xlink:href="#BitstreamVeraSans-Roman-34"/>
       <use x="63.623046875" xlink:href="#BitstreamVeraSans-Roman-37"/>
      </g>
     </g>
    </g>
    <g id="ytick_100">
     <g id="text_106">
      <!-- 61 -->
      <g transform="translate(976.0 191.852414773)scale(0.05 -0.05)">
       <use xlink:href="#BitstreamVeraSans-Roman-36"/>
       <use x="63.623046875" xlink:href="#BitstreamVeraSans-Roman-31"/>
      </g>
     </g>
    </g>
    <g id="ytick_101">
     <g id="text_107">
      <!-- 112 -->
      <g transform="translate(976.0 183.997869318)scale(0.05 -0.05)">
       <use xlink:href="#BitstreamVeraSans-Roman-31"/>
       <use x="63.623046875" xlink:href="#BitstreamVeraSans-Roman-31"/>
       <use x="127.24609375" xlink:href="#BitstreamVeraSans-Roman-32"/>
      </g>
     </g>
    </g>
    <g id="ytick_102">
     <g id="text_108">
      <!-- 9 -->
      <g transform="translate(976.0 176.143323864)scale(0.05 -0.05)">
       <use xlink:href="#BitstreamVeraSans-Roman-39"/>
      </g>
     </g>
    </g>
    <g id="ytick_103">
     <g id="text_109">
      <!-- 36 -->
      <g transform="translate(976.0 168.288778409)scale(0.05 -0.05)">
       <use xlink:href="#BitstreamVeraSans-Roman-33"/>
       <use x="63.623046875" xlink:href="#BitstreamVeraSans-Roman-36"/>
      </g>
     </g>
    </g>
    <g id="ytick_104">
     <g id="text_110">
      <!-- 83 -->
      <g transform="translate(976.0 160.434232955)scale(0.05 -0.05)">
       <use xlink:href="#BitstreamVeraSans-Roman-38"/>
       <use x="63.623046875" xlink:href="#BitstreamVeraSans-Roman-33"/>
      </g>
     </g>
    </g>
    <g id="ytick_105">
     <g id="text_111">
      <!-- resistant44 -->
      <g transform="translate(976.0 152.5796875)scale(0.05 -0.05)">
       <use xlink:href="#BitstreamVeraSans-Roman-72"/>
       <use x="41.08203125" xlink:href="#BitstreamVeraSans-Roman-65"/>
       <use x="102.60546875" xlink:href="#BitstreamVeraSans-Roman-73"/>
       <use x="154.705078125" xlink:href="#BitstreamVeraSans-Roman-69"/>
       <use x="182.48828125" xlink:href="#BitstreamVeraSans-Roman-73"/>
       <use x="234.587890625" xlink:href="#BitstreamVeraSans-Roman-74"/>
       <use x="273.796875" xlink:href="#BitstreamVeraSans-Roman-61"/>
       <use x="335.076171875" xlink:href="#BitstreamVeraSans-Roman-6e"/>
       <use x="398.455078125" xlink:href="#BitstreamVeraSans-Roman-74"/>
       <use x="437.6640625" xlink:href="#BitstreamVeraSans-Roman-34"/>
       <use x="501.287109375" xlink:href="#BitstreamVeraSans-Roman-34"/>
      </g>
     </g>
    </g>
    <g id="ytick_106">
     <g id="text_112">
      <!-- 38 -->
      <g transform="translate(976.0 144.725142045)scale(0.05 -0.05)">
       <use xlink:href="#BitstreamVeraSans-Roman-33"/>
       <use x="63.623046875" xlink:href="#BitstreamVeraSans-Roman-38"/>
      </g>
     </g>
    </g>
    <g id="ytick_107">
     <g id="text_113">
      <!-- 45 -->
      <g transform="translate(976.0 136.870596591)scale(0.05 -0.05)">
       <use xlink:href="#BitstreamVeraSans-Roman-34"/>
       <use x="63.623046875" xlink:href="#BitstreamVeraSans-Roman-35"/>
      </g>
     </g>
    </g>
    <g id="ytick_108">
     <g id="text_114">
      <!-- 51 -->
      <g transform="translate(976.0 129.016051136)scale(0.05 -0.05)">
       <use xlink:href="#BitstreamVeraSans-Roman-35"/>
       <use x="63.623046875" xlink:href="#BitstreamVeraSans-Roman-31"/>
      </g>
     </g>
    </g>
    <g id="ytick_109">
     <g id="text_115">
      <!-- 109 -->
      <g transform="translate(976.0 121.161505682)scale(0.05 -0.05)">
       <use xlink:href="#BitstreamVeraSans-Roman-31"/>
       <use x="63.623046875" xlink:href="#BitstreamVeraSans-Roman-30"/>
       <use x="127.24609375" xlink:href="#BitstreamVeraSans-Roman-39"/>
      </g>
     </g>
    </g>
    <g id="ytick_110">
     <g id="text_116">
      <!-- resistant42 -->
      <g transform="translate(976.0 113.306960227)scale(0.05 -0.05)">
       <use xlink:href="#BitstreamVeraSans-Roman-72"/>
       <use x="41.08203125" xlink:href="#BitstreamVeraSans-Roman-65"/>
       <use x="102.60546875" xlink:href="#BitstreamVeraSans-Roman-73"/>
       <use x="154.705078125" xlink:href="#BitstreamVeraSans-Roman-69"/>
       <use x="182.48828125" xlink:href="#BitstreamVeraSans-Roman-73"/>
       <use x="234.587890625" xlink:href="#BitstreamVeraSans-Roman-74"/>
       <use x="273.796875" xlink:href="#BitstreamVeraSans-Roman-61"/>
       <use x="335.076171875" xlink:href="#BitstreamVeraSans-Roman-6e"/>
       <use x="398.455078125" xlink:href="#BitstreamVeraSans-Roman-74"/>
       <use x="437.6640625" xlink:href="#BitstreamVeraSans-Roman-34"/>
       <use x="501.287109375" xlink:href="#BitstreamVeraSans-Roman-32"/>
      </g>
     </g>
    </g>
   </g>
  </g>
 </g>
 <defs>
  <clipPath id="p5fff78d0ca">
   <rect height="864.0" width="837.0" x="135.0" y="108.0"/>
  </clipPath>
 </defs>
</svg>
