<?xml version="1.0" encoding="utf-8" standalone="no"?>
<!DOCTYPE svg PUBLIC "-//W3C//DTD SVG 1.1//EN"
  "http://www.w3.org/Graphics/SVG/1.1/DTD/svg11.dtd">
<!-- Created with matplotlib (http://matplotlib.org/) -->
<svg height="1080pt" version="1.1" viewBox="0 0 1080 1080" width="1080pt" xmlns="http://www.w3.org/2000/svg" xmlns:xlink="http://www.w3.org/1999/xlink">
 <defs>
  <style type="text/css">
*{stroke-linecap:butt;stroke-linejoin:round;stroke-miterlimit:100000;}
  </style>
 </defs>
 <g id="figure_1">
  <g id="patch_1">
   <path d="M 0 1080 
L 1080 1080 
L 1080 0 
L 0 0 
z
" style="fill:#ffffff;"/>
  </g>
  <g id="axes_1">
   <g id="patch_2">
    <path d="M 135 972 
L 972 972 
L 972 108 
L 135 108 
z
" style="fill:#ffffff;"/>
   </g>
   <g id="LineCollection_1">
    <path clip-path="url(#p6f2c1a15cb)" d="M 972 960.218182 
L 713.949809 960.218182 
L 713.949809 952.363636 
L 972 952.363636 
" style="fill:none;stroke:#008000;"/>
    <path clip-path="url(#p6f2c1a15cb)" d="M 972 968.072727 
L 725.128272 968.072727 
L 725.128272 956.290909 
L 713.949809 956.290909 
" style="fill:none;stroke:#008000;"/>
    <path clip-path="url(#p6f2c1a15cb)" d="M 972 386.836364 
L 930.939494 386.836364 
L 930.939494 378.981818 
L 972 378.981818 
" style="fill:none;stroke:#008000;"/>
    <path clip-path="url(#p6f2c1a15cb)" d="M 972 394.690909 
L 933.99874 394.690909 
L 933.99874 382.909091 
L 930.939494 382.909091 
" style="fill:none;stroke:#008000;"/>
    <path clip-path="url(#p6f2c1a15cb)" d="M 972 402.545455 
L 935.005377 402.545455 
L 935.005377 388.8 
L 933.99874 388.8 
" style="fill:none;stroke:#008000;"/>
    <path clip-path="url(#p6f2c1a15cb)" d="M 972 410.4 
L 934.787261 410.4 
L 934.787261 395.672727 
L 935.005377 395.672727 
" style="fill:none;stroke:#008000;"/>
    <path clip-path="url(#p6f2c1a15cb)" d="M 972 418.254545 
L 933.989765 418.254545 
L 933.989765 403.036364 
L 934.787261 403.036364 
" style="fill:none;stroke:#008000;"/>
    <path clip-path="url(#p6f2c1a15cb)" d="M 972 426.109091 
L 934.736377 426.109091 
L 934.736377 410.645455 
L 933.989765 410.645455 
" style="fill:none;stroke:#008000;"/>
    <path clip-path="url(#p6f2c1a15cb)" d="M 972 433.963636 
L 935.18749 433.963636 
L 935.18749 418.377273 
L 934.736377 418.377273 
" style="fill:none;stroke:#008000;"/>
    <path clip-path="url(#p6f2c1a15cb)" d="M 972 441.818182 
L 934.878208 441.818182 
L 934.878208 426.170455 
L 935.18749 426.170455 
" style="fill:none;stroke:#008000;"/>
    <path clip-path="url(#p6f2c1a15cb)" d="M 972 449.672727 
L 935.12378 449.672727 
L 935.12378 433.994318 
L 934.878208 433.994318 
" style="fill:none;stroke:#008000;"/>
    <path clip-path="url(#p6f2c1a15cb)" d="M 972 457.527273 
L 935.467083 457.527273 
L 935.467083 441.833523 
L 935.12378 441.833523 
" style="fill:none;stroke:#008000;"/>
    <path clip-path="url(#p6f2c1a15cb)" d="M 972 465.381818 
L 935.23575 465.381818 
L 935.23575 449.680398 
L 935.467083 449.680398 
" style="fill:none;stroke:#008000;"/>
    <path clip-path="url(#p6f2c1a15cb)" d="M 972 473.236364 
L 935.687596 473.236364 
L 935.687596 457.531108 
L 935.23575 457.531108 
" style="fill:none;stroke:#008000;"/>
    <path clip-path="url(#p6f2c1a15cb)" d="M 972 481.090909 
L 935.094554 481.090909 
L 935.094554 465.383736 
L 935.687596 465.383736 
" style="fill:none;stroke:#008000;"/>
    <path clip-path="url(#p6f2c1a15cb)" d="M 972 488.945455 
L 931.902774 488.945455 
L 931.902774 473.237322 
L 935.094554 473.237322 
" style="fill:none;stroke:#008000;"/>
    <path clip-path="url(#p6f2c1a15cb)" d="M 972 496.8 
L 931.985733 496.8 
L 931.985733 481.091388 
L 931.902774 481.091388 
" style="fill:none;stroke:#008000;"/>
    <path clip-path="url(#p6f2c1a15cb)" d="M 972 504.654545 
L 929.826138 504.654545 
L 929.826138 488.945694 
L 931.985733 488.945694 
" style="fill:none;stroke:#008000;"/>
    <path clip-path="url(#p6f2c1a15cb)" d="M 972 512.509091 
L 928.691359 512.509091 
L 928.691359 496.80012 
L 929.826138 496.80012 
" style="fill:none;stroke:#008000;"/>
    <path clip-path="url(#p6f2c1a15cb)" d="M 972 520.363636 
L 928.78541 520.363636 
L 928.78541 504.654605 
L 928.691359 504.654605 
" style="fill:none;stroke:#008000;"/>
    <path clip-path="url(#p6f2c1a15cb)" d="M 972 528.218182 
L 928.775616 528.218182 
L 928.775616 512.509121 
L 928.78541 512.509121 
" style="fill:none;stroke:#008000;"/>
    <path clip-path="url(#p6f2c1a15cb)" d="M 972 536.072727 
L 929.210863 536.072727 
L 929.210863 520.363651 
L 928.775616 520.363651 
" style="fill:none;stroke:#008000;"/>
    <path clip-path="url(#p6f2c1a15cb)" d="M 972 543.927273 
L 928.97071 543.927273 
L 928.97071 528.218189 
L 929.210863 528.218189 
" style="fill:none;stroke:#008000;"/>
    <path clip-path="url(#p6f2c1a15cb)" d="M 972 551.781818 
L 929.069911 551.781818 
L 929.069911 536.072731 
L 928.97071 536.072731 
" style="fill:none;stroke:#008000;"/>
    <path clip-path="url(#p6f2c1a15cb)" d="M 972 559.636364 
L 929.234102 559.636364 
L 929.234102 543.927275 
L 929.069911 543.927275 
" style="fill:none;stroke:#008000;"/>
    <path clip-path="url(#p6f2c1a15cb)" d="M 972 567.490909 
L 927.704536 567.490909 
L 927.704536 551.781819 
L 929.234102 551.781819 
" style="fill:none;stroke:#008000;"/>
    <path clip-path="url(#p6f2c1a15cb)" d="M 972 575.345455 
L 927.927695 575.345455 
L 927.927695 559.636364 
L 927.704536 559.636364 
" style="fill:none;stroke:#008000;"/>
    <path clip-path="url(#p6f2c1a15cb)" d="M 972 583.2 
L 927.709715 583.2 
L 927.709715 567.490909 
L 927.927695 567.490909 
" style="fill:none;stroke:#008000;"/>
    <path clip-path="url(#p6f2c1a15cb)" d="M 972 591.054545 
L 927.552414 591.054545 
L 927.552414 575.345455 
L 927.709715 575.345455 
" style="fill:none;stroke:#008000;"/>
    <path clip-path="url(#p6f2c1a15cb)" d="M 972 598.909091 
L 927.372633 598.909091 
L 927.372633 583.2 
L 927.552414 583.2 
" style="fill:none;stroke:#008000;"/>
    <path clip-path="url(#p6f2c1a15cb)" d="M 972 606.763636 
L 927.432685 606.763636 
L 927.432685 591.054545 
L 927.372633 591.054545 
" style="fill:none;stroke:#008000;"/>
    <path clip-path="url(#p6f2c1a15cb)" d="M 972 614.618182 
L 927.393706 614.618182 
L 927.393706 598.909091 
L 927.432685 598.909091 
" style="fill:none;stroke:#008000;"/>
    <path clip-path="url(#p6f2c1a15cb)" d="M 972 622.472727 
L 927.354616 622.472727 
L 927.354616 606.763636 
L 927.393706 606.763636 
" style="fill:none;stroke:#008000;"/>
    <path clip-path="url(#p6f2c1a15cb)" d="M 972 630.327273 
L 926.867442 630.327273 
L 926.867442 614.618182 
L 927.354616 614.618182 
" style="fill:none;stroke:#008000;"/>
    <path clip-path="url(#p6f2c1a15cb)" d="M 972 638.181818 
L 926.923729 638.181818 
L 926.923729 622.472727 
L 926.867442 622.472727 
" style="fill:none;stroke:#008000;"/>
    <path clip-path="url(#p6f2c1a15cb)" d="M 972 646.036364 
L 926.83024 646.036364 
L 926.83024 630.327273 
L 926.923729 630.327273 
" style="fill:none;stroke:#008000;"/>
    <path clip-path="url(#p6f2c1a15cb)" d="M 972 653.890909 
L 926.909204 653.890909 
L 926.909204 638.181818 
L 926.83024 638.181818 
" style="fill:none;stroke:#008000;"/>
    <path clip-path="url(#p6f2c1a15cb)" d="M 972 661.745455 
L 926.291345 661.745455 
L 926.291345 646.036364 
L 926.909204 646.036364 
" style="fill:none;stroke:#008000;"/>
    <path clip-path="url(#p6f2c1a15cb)" d="M 972 669.6 
L 926.417879 669.6 
L 926.417879 653.890909 
L 926.291345 653.890909 
" style="fill:none;stroke:#008000;"/>
    <path clip-path="url(#p6f2c1a15cb)" d="M 972 677.454545 
L 926.117089 677.454545 
L 926.117089 661.745455 
L 926.417879 661.745455 
" style="fill:none;stroke:#008000;"/>
    <path clip-path="url(#p6f2c1a15cb)" d="M 972 685.309091 
L 925.849025 685.309091 
L 925.849025 669.6 
L 926.117089 669.6 
" style="fill:none;stroke:#008000;"/>
    <path clip-path="url(#p6f2c1a15cb)" d="M 972 693.163636 
L 926.008498 693.163636 
L 926.008498 677.454545 
L 925.849025 677.454545 
" style="fill:none;stroke:#008000;"/>
    <path clip-path="url(#p6f2c1a15cb)" d="M 972 701.018182 
L 926.16613 701.018182 
L 926.16613 685.309091 
L 926.008498 685.309091 
" style="fill:none;stroke:#008000;"/>
    <path clip-path="url(#p6f2c1a15cb)" d="M 972 708.872727 
L 926.132357 708.872727 
L 926.132357 693.163636 
L 926.16613 693.163636 
" style="fill:none;stroke:#008000;"/>
    <path clip-path="url(#p6f2c1a15cb)" d="M 972 716.727273 
L 926.147919 716.727273 
L 926.147919 701.018182 
L 926.132357 701.018182 
" style="fill:none;stroke:#008000;"/>
    <path clip-path="url(#p6f2c1a15cb)" d="M 972 724.581818 
L 926.01482 724.581818 
L 926.01482 708.872727 
L 926.147919 708.872727 
" style="fill:none;stroke:#008000;"/>
    <path clip-path="url(#p6f2c1a15cb)" d="M 972 732.436364 
L 925.987917 732.436364 
L 925.987917 716.727273 
L 926.01482 716.727273 
" style="fill:none;stroke:#008000;"/>
    <path clip-path="url(#p6f2c1a15cb)" d="M 972 740.290909 
L 925.484395 740.290909 
L 925.484395 724.581818 
L 925.987917 724.581818 
" style="fill:none;stroke:#008000;"/>
    <path clip-path="url(#p6f2c1a15cb)" d="M 972 748.145455 
L 925.19493 748.145455 
L 925.19493 732.436364 
L 925.484395 732.436364 
" style="fill:none;stroke:#008000;"/>
    <path clip-path="url(#p6f2c1a15cb)" d="M 972 756 
L 924.328575 756 
L 924.328575 740.290909 
L 925.19493 740.290909 
" style="fill:none;stroke:#008000;"/>
    <path clip-path="url(#p6f2c1a15cb)" d="M 972 763.854545 
L 924.025075 763.854545 
L 924.025075 748.145455 
L 924.328575 748.145455 
" style="fill:none;stroke:#008000;"/>
    <path clip-path="url(#p6f2c1a15cb)" d="M 972 771.709091 
L 924.039465 771.709091 
L 924.039465 756 
L 924.025075 756 
" style="fill:none;stroke:#008000;"/>
    <path clip-path="url(#p6f2c1a15cb)" d="M 972 779.563636 
L 923.964466 779.563636 
L 923.964466 763.854545 
L 924.039465 763.854545 
" style="fill:none;stroke:#008000;"/>
    <path clip-path="url(#p6f2c1a15cb)" d="M 972 787.418182 
L 923.975151 787.418182 
L 923.975151 771.709091 
L 923.964466 771.709091 
" style="fill:none;stroke:#008000;"/>
    <path clip-path="url(#p6f2c1a15cb)" d="M 972 795.272727 
L 923.644319 795.272727 
L 923.644319 779.563636 
L 923.975151 779.563636 
" style="fill:none;stroke:#008000;"/>
    <path clip-path="url(#p6f2c1a15cb)" d="M 972 803.127273 
L 922.766181 803.127273 
L 922.766181 787.418182 
L 923.644319 787.418182 
" style="fill:none;stroke:#008000;"/>
    <path clip-path="url(#p6f2c1a15cb)" d="M 972 810.981818 
L 922.88385 810.981818 
L 922.88385 795.272727 
L 922.766181 795.272727 
" style="fill:none;stroke:#008000;"/>
    <path clip-path="url(#p6f2c1a15cb)" d="M 972 818.836364 
L 923.083355 818.836364 
L 923.083355 803.127273 
L 922.88385 803.127273 
" style="fill:none;stroke:#008000;"/>
    <path clip-path="url(#p6f2c1a15cb)" d="M 972 826.690909 
L 923.215986 826.690909 
L 923.215986 810.981818 
L 923.083355 810.981818 
" style="fill:none;stroke:#008000;"/>
    <path clip-path="url(#p6f2c1a15cb)" d="M 972 834.545455 
L 921.226778 834.545455 
L 921.226778 818.836364 
L 923.215986 818.836364 
" style="fill:none;stroke:#008000;"/>
    <path clip-path="url(#p6f2c1a15cb)" d="M 972 842.4 
L 921.258148 842.4 
L 921.258148 826.690909 
L 921.226778 826.690909 
" style="fill:none;stroke:#008000;"/>
    <path clip-path="url(#p6f2c1a15cb)" d="M 972 850.254545 
L 919.525823 850.254545 
L 919.525823 834.545455 
L 921.258148 834.545455 
" style="fill:none;stroke:#008000;"/>
    <path clip-path="url(#p6f2c1a15cb)" d="M 972 858.109091 
L 919.141101 858.109091 
L 919.141101 842.4 
L 919.525823 842.4 
" style="fill:none;stroke:#008000;"/>
    <path clip-path="url(#p6f2c1a15cb)" d="M 972 865.963636 
L 918.972887 865.963636 
L 918.972887 850.254545 
L 919.141101 850.254545 
" style="fill:none;stroke:#008000;"/>
    <path clip-path="url(#p6f2c1a15cb)" d="M 972 873.818182 
L 918.93886 873.818182 
L 918.93886 858.109091 
L 918.972887 858.109091 
" style="fill:none;stroke:#008000;"/>
    <path clip-path="url(#p6f2c1a15cb)" d="M 972 881.672727 
L 918.075055 881.672727 
L 918.075055 865.963636 
L 918.93886 865.963636 
" style="fill:none;stroke:#008000;"/>
    <path clip-path="url(#p6f2c1a15cb)" d="M 972 889.527273 
L 916.567457 889.527273 
L 916.567457 873.818182 
L 918.075055 873.818182 
" style="fill:none;stroke:#008000;"/>
    <path clip-path="url(#p6f2c1a15cb)" d="M 972 897.381818 
L 916.307696 897.381818 
L 916.307696 881.672727 
L 916.567457 881.672727 
" style="fill:none;stroke:#008000;"/>
    <path clip-path="url(#p6f2c1a15cb)" d="M 972 371.127273 
L 916.20296 371.127273 
L 916.20296 363.272727 
L 972 363.272727 
" style="fill:none;stroke:#008000;"/>
    <path clip-path="url(#p6f2c1a15cb)" d="M 916.307696 889.527273 
L 920.671173 889.527273 
L 920.671173 367.2 
L 916.20296 367.2 
" style="fill:none;stroke:#008000;"/>
    <path clip-path="url(#p6f2c1a15cb)" d="M 972 905.236364 
L 915.716495 905.236364 
L 915.716495 628.363636 
L 920.671173 628.363636 
" style="fill:none;stroke:#008000;"/>
    <path clip-path="url(#p6f2c1a15cb)" d="M 972 331.854545 
L 914.834902 331.854545 
L 914.834902 324 
L 972 324 
" style="fill:none;stroke:#008000;"/>
    <path clip-path="url(#p6f2c1a15cb)" d="M 972 339.709091 
L 918.32925 339.709091 
L 918.32925 327.927273 
L 914.834902 327.927273 
" style="fill:none;stroke:#008000;"/>
    <path clip-path="url(#p6f2c1a15cb)" d="M 972 347.563636 
L 919.159456 347.563636 
L 919.159456 333.818182 
L 918.32925 333.818182 
" style="fill:none;stroke:#008000;"/>
    <path clip-path="url(#p6f2c1a15cb)" d="M 972 355.418182 
L 918.985005 355.418182 
L 918.985005 340.690909 
L 919.159456 340.690909 
" style="fill:none;stroke:#008000;"/>
    <path clip-path="url(#p6f2c1a15cb)" d="M 915.716495 766.8 
L 919.320922 766.8 
L 919.320922 348.054545 
L 918.985005 348.054545 
" style="fill:none;stroke:#008000;"/>
    <path clip-path="url(#p6f2c1a15cb)" d="M 972 913.090909 
L 916.043232 913.090909 
L 916.043232 557.427273 
L 919.320922 557.427273 
" style="fill:none;stroke:#008000;"/>
    <path clip-path="url(#p6f2c1a15cb)" d="M 972 920.945455 
L 912.644358 920.945455 
L 912.644358 735.259091 
L 916.043232 735.259091 
" style="fill:none;stroke:#008000;"/>
    <path clip-path="url(#p6f2c1a15cb)" d="M 972 928.8 
L 912.14077 928.8 
L 912.14077 828.102273 
L 912.644358 828.102273 
" style="fill:none;stroke:#008000;"/>
    <path clip-path="url(#p6f2c1a15cb)" d="M 972 936.654545 
L 909.835745 936.654545 
L 909.835745 878.451136 
L 912.14077 878.451136 
" style="fill:none;stroke:#008000;"/>
    <path clip-path="url(#p6f2c1a15cb)" d="M 972 944.509091 
L 909.780744 944.509091 
L 909.780744 907.552841 
L 909.835745 907.552841 
" style="fill:none;stroke:#008000;"/>
    <path clip-path="url(#p6f2c1a15cb)" d="M 972 316.145455 
L 908.995123 316.145455 
L 908.995123 308.290909 
L 972 308.290909 
" style="fill:none;stroke:#008000;"/>
    <path clip-path="url(#p6f2c1a15cb)" d="M 909.780744 926.030966 
L 913.228349 926.030966 
L 913.228349 312.218182 
L 908.995123 312.218182 
" style="fill:none;stroke:#008000;"/>
    <path clip-path="url(#p6f2c1a15cb)" d="M 972 269.018182 
L 908.845126 269.018182 
L 908.845126 261.163636 
L 972 261.163636 
" style="fill:none;stroke:#008000;"/>
    <path clip-path="url(#p6f2c1a15cb)" d="M 972 276.872727 
L 910.275019 276.872727 
L 910.275019 265.090909 
L 908.845126 265.090909 
" style="fill:none;stroke:#008000;"/>
    <path clip-path="url(#p6f2c1a15cb)" d="M 972 284.727273 
L 914.041955 284.727273 
L 914.041955 270.981818 
L 910.275019 270.981818 
" style="fill:none;stroke:#008000;"/>
    <path clip-path="url(#p6f2c1a15cb)" d="M 972 292.581818 
L 913.707764 292.581818 
L 913.707764 277.854545 
L 914.041955 277.854545 
" style="fill:none;stroke:#008000;"/>
    <path clip-path="url(#p6f2c1a15cb)" d="M 972 300.436364 
L 914.150464 300.436364 
L 914.150464 285.218182 
L 913.707764 285.218182 
" style="fill:none;stroke:#008000;"/>
    <path clip-path="url(#p6f2c1a15cb)" d="M 913.228349 619.124574 
L 913.346123 619.124574 
L 913.346123 292.827273 
L 914.150464 292.827273 
" style="fill:none;stroke:#008000;"/>
    <path clip-path="url(#p6f2c1a15cb)" d="M 972 198.327273 
L 902.734859 198.327273 
L 902.734859 190.472727 
L 972 190.472727 
" style="fill:none;stroke:#008000;"/>
    <path clip-path="url(#p6f2c1a15cb)" d="M 972 159.054545 
L 898.294551 159.054545 
L 898.294551 151.2 
L 972 151.2 
" style="fill:none;stroke:#008000;"/>
    <path clip-path="url(#p6f2c1a15cb)" d="M 972 166.909091 
L 903.538224 166.909091 
L 903.538224 155.127273 
L 898.294551 155.127273 
" style="fill:none;stroke:#008000;"/>
    <path clip-path="url(#p6f2c1a15cb)" d="M 972 174.763636 
L 905.229671 174.763636 
L 905.229671 161.018182 
L 903.538224 161.018182 
" style="fill:none;stroke:#008000;"/>
    <path clip-path="url(#p6f2c1a15cb)" d="M 972 182.618182 
L 909.307772 182.618182 
L 909.307772 167.890909 
L 905.229671 167.890909 
" style="fill:none;stroke:#008000;"/>
    <path clip-path="url(#p6f2c1a15cb)" d="M 902.734859 194.4 
L 902.738452 194.4 
L 902.738452 175.254545 
L 909.307772 175.254545 
" style="fill:none;stroke:#008000;"/>
    <path clip-path="url(#p6f2c1a15cb)" d="M 972 206.181818 
L 906.755045 206.181818 
L 906.755045 184.827273 
L 902.738452 184.827273 
" style="fill:none;stroke:#008000;"/>
    <path clip-path="url(#p6f2c1a15cb)" d="M 972 214.036364 
L 899.964951 214.036364 
L 899.964951 195.504545 
L 906.755045 195.504545 
" style="fill:none;stroke:#008000;"/>
    <path clip-path="url(#p6f2c1a15cb)" d="M 972 221.890909 
L 896.710822 221.890909 
L 896.710822 204.770455 
L 899.964951 204.770455 
" style="fill:none;stroke:#008000;"/>
    <path clip-path="url(#p6f2c1a15cb)" d="M 972 229.745455 
L 897.699995 229.745455 
L 897.699995 213.330682 
L 896.710822 213.330682 
" style="fill:none;stroke:#008000;"/>
    <path clip-path="url(#p6f2c1a15cb)" d="M 972 237.6 
L 896.942521 237.6 
L 896.942521 221.538068 
L 897.699995 221.538068 
" style="fill:none;stroke:#008000;"/>
    <path clip-path="url(#p6f2c1a15cb)" d="M 972 143.345455 
L 885.034363 143.345455 
L 885.034363 135.490909 
L 972 135.490909 
" style="fill:none;stroke:#008000;"/>
    <path clip-path="url(#p6f2c1a15cb)" d="M 896.942521 229.569034 
L 888.125216 229.569034 
L 888.125216 139.418182 
L 885.034363 139.418182 
" style="fill:none;stroke:#008000;"/>
    <path clip-path="url(#p6f2c1a15cb)" d="M 972 245.454545 
L 877.32516 245.454545 
L 877.32516 184.493608 
L 888.125216 184.493608 
" style="fill:none;stroke:#008000;"/>
    <path clip-path="url(#p6f2c1a15cb)" d="M 972 253.309091 
L 879.017479 253.309091 
L 879.017479 214.974077 
L 877.32516 214.974077 
" style="fill:none;stroke:#008000;"/>
    <path clip-path="url(#p6f2c1a15cb)" d="M 913.346123 455.975923 
L 860.980466 455.975923 
L 860.980466 234.141584 
L 879.017479 234.141584 
" style="fill:none;stroke:#008000;"/>
    <path clip-path="url(#p6f2c1a15cb)" d="M 972 119.781818 
L 823.487854 119.781818 
L 823.487854 111.927273 
L 972 111.927273 
" style="fill:none;stroke:#008000;"/>
    <path clip-path="url(#p6f2c1a15cb)" d="M 972 127.636364 
L 823.038514 127.636364 
L 823.038514 115.854545 
L 823.487854 115.854545 
" style="fill:none;stroke:#008000;"/>
    <path clip-path="url(#p6f2c1a15cb)" d="M 860.980466 345.058754 
L 649.392356 345.058754 
L 649.392356 121.745455 
L 823.038514 121.745455 
" style="fill:none;stroke:#008000;"/>
    <path clip-path="url(#p6f2c1a15cb)" d="M 725.128272 962.181818 
L 174.857143 962.181818 
L 174.857143 233.402104 
L 649.392356 233.402104 
" style="fill:none;stroke:#008000;"/>
   </g>
   <g id="patch_3">
    <path d="M 135 108 
L 972 108 
" style="fill:none;stroke:#000000;stroke-linecap:square;stroke-linejoin:miter;"/>
   </g>
   <g id="patch_4">
    <path d="M 972 972 
L 972 108 
" style="fill:none;stroke:#000000;stroke-linecap:square;stroke-linejoin:miter;"/>
   </g>
   <g id="patch_5">
    <path d="M 135 972 
L 972 972 
" style="fill:none;stroke:#000000;stroke-linecap:square;stroke-linejoin:miter;"/>
   </g>
   <g id="patch_6">
    <path d="M 135 972 
L 135 108 
" style="fill:none;stroke:#000000;stroke-linecap:square;stroke-linejoin:miter;"/>
   </g>
   <g id="matplotlib.axis_1">
    <g id="xtick_1">
     <g id="line2d_1">
      <defs>
       <path d="M 0 0 
L 0 -4 
" id="maabd731956" style="stroke:#000000;stroke-width:0.5;"/>
      </defs>
      <g>
       <use style="stroke:#000000;stroke-width:0.5;" x="972.0" xlink:href="#maabd731956" y="972.0"/>
      </g>
     </g>
     <g id="line2d_2">
      <defs>
       <path d="M 0 0 
L 0 4 
" id="mc8a0c4d63e" style="stroke:#000000;stroke-width:0.5;"/>
      </defs>
      <g>
       <use style="stroke:#000000;stroke-width:0.5;" x="972.0" xlink:href="#mc8a0c4d63e" y="108.0"/>
      </g>
     </g>
     <g id="text_1">
      <!-- 0.0 -->
      <defs>
       <path d="M 31.78125 66.40625 
Q 24.171875 66.40625 20.328125 58.90625 
Q 16.5 51.421875 16.5 36.375 
Q 16.5 21.390625 20.328125 13.890625 
Q 24.171875 6.390625 31.78125 6.390625 
Q 39.453125 6.390625 43.28125 13.890625 
Q 47.125 21.390625 47.125 36.375 
Q 47.125 51.421875 43.28125 58.90625 
Q 39.453125 66.40625 31.78125 66.40625 
M 31.78125 74.21875 
Q 44.046875 74.21875 50.515625 64.515625 
Q 56.984375 54.828125 56.984375 36.375 
Q 56.984375 17.96875 50.515625 8.265625 
Q 44.046875 -1.421875 31.78125 -1.421875 
Q 19.53125 -1.421875 13.0625 8.265625 
Q 6.59375 17.96875 6.59375 36.375 
Q 6.59375 54.828125 13.0625 64.515625 
Q 19.53125 74.21875 31.78125 74.21875 
" id="BitstreamVeraSans-Roman-30"/>
       <path d="M 10.6875 12.40625 
L 21 12.40625 
L 21 0 
L 10.6875 0 
z
" id="BitstreamVeraSans-Roman-2e"/>
      </defs>
      <g transform="translate(962.458125 985.118125)scale(0.12 -0.12)">
       <use xlink:href="#BitstreamVeraSans-Roman-30"/>
       <use x="63.623046875" xlink:href="#BitstreamVeraSans-Roman-2e"/>
       <use x="95.41015625" xlink:href="#BitstreamVeraSans-Roman-30"/>
      </g>
     </g>
    </g>
    <g id="xtick_2">
     <g id="line2d_3">
      <g>
       <use style="stroke:#000000;stroke-width:0.5;" x="803.658121027" xlink:href="#maabd731956" y="972.0"/>
      </g>
     </g>
     <g id="line2d_4">
      <g>
       <use style="stroke:#000000;stroke-width:0.5;" x="803.658121027" xlink:href="#mc8a0c4d63e" y="108.0"/>
      </g>
     </g>
     <g id="text_2">
      <!-- 0.1 -->
      <defs>
       <path d="M 12.40625 8.296875 
L 28.515625 8.296875 
L 28.515625 63.921875 
L 10.984375 60.40625 
L 10.984375 69.390625 
L 28.421875 72.90625 
L 38.28125 72.90625 
L 38.28125 8.296875 
L 54.390625 8.296875 
L 54.390625 0 
L 12.40625 0 
z
" id="BitstreamVeraSans-Roman-31"/>
      </defs>
      <g transform="translate(794.116246027 985.118125)scale(0.12 -0.12)">
       <use xlink:href="#BitstreamVeraSans-Roman-30"/>
       <use x="63.623046875" xlink:href="#BitstreamVeraSans-Roman-2e"/>
       <use x="95.41015625" xlink:href="#BitstreamVeraSans-Roman-31"/>
      </g>
     </g>
    </g>
    <g id="xtick_3">
     <g id="line2d_5">
      <g>
       <use style="stroke:#000000;stroke-width:0.5;" x="635.316242053" xlink:href="#maabd731956" y="972.0"/>
      </g>
     </g>
     <g id="line2d_6">
      <g>
       <use style="stroke:#000000;stroke-width:0.5;" x="635.316242053" xlink:href="#mc8a0c4d63e" y="108.0"/>
      </g>
     </g>
     <g id="text_3">
      <!-- 0.2 -->
      <defs>
       <path d="M 19.1875 8.296875 
L 53.609375 8.296875 
L 53.609375 0 
L 7.328125 0 
L 7.328125 8.296875 
Q 12.9375 14.109375 22.625 23.890625 
Q 32.328125 33.6875 34.8125 36.53125 
Q 39.546875 41.84375 41.421875 45.53125 
Q 43.3125 49.21875 43.3125 52.78125 
Q 43.3125 58.59375 39.234375 62.25 
Q 35.15625 65.921875 28.609375 65.921875 
Q 23.96875 65.921875 18.8125 64.3125 
Q 13.671875 62.703125 7.8125 59.421875 
L 7.8125 69.390625 
Q 13.765625 71.78125 18.9375 73 
Q 24.125 74.21875 28.421875 74.21875 
Q 39.75 74.21875 46.484375 68.546875 
Q 53.21875 62.890625 53.21875 53.421875 
Q 53.21875 48.921875 51.53125 44.890625 
Q 49.859375 40.875 45.40625 35.40625 
Q 44.1875 33.984375 37.640625 27.21875 
Q 31.109375 20.453125 19.1875 8.296875 
" id="BitstreamVeraSans-Roman-32"/>
      </defs>
      <g transform="translate(625.774367053 985.118125)scale(0.12 -0.12)">
       <use xlink:href="#BitstreamVeraSans-Roman-30"/>
       <use x="63.623046875" xlink:href="#BitstreamVeraSans-Roman-2e"/>
       <use x="95.41015625" xlink:href="#BitstreamVeraSans-Roman-32"/>
      </g>
     </g>
    </g>
    <g id="xtick_4">
     <g id="line2d_7">
      <g>
       <use style="stroke:#000000;stroke-width:0.5;" x="466.97436308" xlink:href="#maabd731956" y="972.0"/>
      </g>
     </g>
     <g id="line2d_8">
      <g>
       <use style="stroke:#000000;stroke-width:0.5;" x="466.97436308" xlink:href="#mc8a0c4d63e" y="108.0"/>
      </g>
     </g>
     <g id="text_4">
      <!-- 0.3 -->
      <defs>
       <path d="M 40.578125 39.3125 
Q 47.65625 37.796875 51.625 33 
Q 55.609375 28.21875 55.609375 21.1875 
Q 55.609375 10.40625 48.1875 4.484375 
Q 40.765625 -1.421875 27.09375 -1.421875 
Q 22.515625 -1.421875 17.65625 -0.515625 
Q 12.796875 0.390625 7.625 2.203125 
L 7.625 11.71875 
Q 11.71875 9.328125 16.59375 8.109375 
Q 21.484375 6.890625 26.8125 6.890625 
Q 36.078125 6.890625 40.9375 10.546875 
Q 45.796875 14.203125 45.796875 21.1875 
Q 45.796875 27.640625 41.28125 31.265625 
Q 36.765625 34.90625 28.71875 34.90625 
L 20.21875 34.90625 
L 20.21875 43.015625 
L 29.109375 43.015625 
Q 36.375 43.015625 40.234375 45.921875 
Q 44.09375 48.828125 44.09375 54.296875 
Q 44.09375 59.90625 40.109375 62.90625 
Q 36.140625 65.921875 28.71875 65.921875 
Q 24.65625 65.921875 20.015625 65.03125 
Q 15.375 64.15625 9.8125 62.3125 
L 9.8125 71.09375 
Q 15.4375 72.65625 20.34375 73.4375 
Q 25.25 74.21875 29.59375 74.21875 
Q 40.828125 74.21875 47.359375 69.109375 
Q 53.90625 64.015625 53.90625 55.328125 
Q 53.90625 49.265625 50.4375 45.09375 
Q 46.96875 40.921875 40.578125 39.3125 
" id="BitstreamVeraSans-Roman-33"/>
      </defs>
      <g transform="translate(457.43248808 985.118125)scale(0.12 -0.12)">
       <use xlink:href="#BitstreamVeraSans-Roman-30"/>
       <use x="63.623046875" xlink:href="#BitstreamVeraSans-Roman-2e"/>
       <use x="95.41015625" xlink:href="#BitstreamVeraSans-Roman-33"/>
      </g>
     </g>
    </g>
    <g id="xtick_5">
     <g id="line2d_9">
      <g>
       <use style="stroke:#000000;stroke-width:0.5;" x="298.632484107" xlink:href="#maabd731956" y="972.0"/>
      </g>
     </g>
     <g id="line2d_10">
      <g>
       <use style="stroke:#000000;stroke-width:0.5;" x="298.632484107" xlink:href="#mc8a0c4d63e" y="108.0"/>
      </g>
     </g>
     <g id="text_5">
      <!-- 0.4 -->
      <defs>
       <path d="M 37.796875 64.3125 
L 12.890625 25.390625 
L 37.796875 25.390625 
z
M 35.203125 72.90625 
L 47.609375 72.90625 
L 47.609375 25.390625 
L 58.015625 25.390625 
L 58.015625 17.1875 
L 47.609375 17.1875 
L 47.609375 0 
L 37.796875 0 
L 37.796875 17.1875 
L 4.890625 17.1875 
L 4.890625 26.703125 
z
" id="BitstreamVeraSans-Roman-34"/>
      </defs>
      <g transform="translate(289.090609107 985.118125)scale(0.12 -0.12)">
       <use xlink:href="#BitstreamVeraSans-Roman-30"/>
       <use x="63.623046875" xlink:href="#BitstreamVeraSans-Roman-2e"/>
       <use x="95.41015625" xlink:href="#BitstreamVeraSans-Roman-34"/>
      </g>
     </g>
    </g>
   </g>
   <g id="matplotlib.axis_2">
    <g id="ytick_1">
     <g id="text_6">
      <!-- 46 -->
      <defs>
       <path d="M 33.015625 40.375 
Q 26.375 40.375 22.484375 35.828125 
Q 18.609375 31.296875 18.609375 23.390625 
Q 18.609375 15.53125 22.484375 10.953125 
Q 26.375 6.390625 33.015625 6.390625 
Q 39.65625 6.390625 43.53125 10.953125 
Q 47.40625 15.53125 47.40625 23.390625 
Q 47.40625 31.296875 43.53125 35.828125 
Q 39.65625 40.375 33.015625 40.375 
M 52.59375 71.296875 
L 52.59375 62.3125 
Q 48.875 64.0625 45.09375 64.984375 
Q 41.3125 65.921875 37.59375 65.921875 
Q 27.828125 65.921875 22.671875 59.328125 
Q 17.53125 52.734375 16.796875 39.40625 
Q 19.671875 43.65625 24.015625 45.921875 
Q 28.375 48.1875 33.59375 48.1875 
Q 44.578125 48.1875 50.953125 41.515625 
Q 57.328125 34.859375 57.328125 23.390625 
Q 57.328125 12.15625 50.6875 5.359375 
Q 44.046875 -1.421875 33.015625 -1.421875 
Q 20.359375 -1.421875 13.671875 8.265625 
Q 6.984375 17.96875 6.984375 36.375 
Q 6.984375 53.65625 15.1875 63.9375 
Q 23.390625 74.21875 37.203125 74.21875 
Q 40.921875 74.21875 44.703125 73.484375 
Q 48.484375 72.75 52.59375 71.296875 
" id="BitstreamVeraSans-Roman-36"/>
      </defs>
      <g transform="translate(976.0 969.452414773)scale(0.05 -0.05)">
       <use xlink:href="#BitstreamVeraSans-Roman-34"/>
       <use x="63.623046875" xlink:href="#BitstreamVeraSans-Roman-36"/>
      </g>
     </g>
    </g>
    <g id="ytick_2">
     <g id="text_7">
      <!-- 72 -->
      <defs>
       <path d="M 8.203125 72.90625 
L 55.078125 72.90625 
L 55.078125 68.703125 
L 28.609375 0 
L 18.3125 0 
L 43.21875 64.59375 
L 8.203125 64.59375 
z
" id="BitstreamVeraSans-Roman-37"/>
      </defs>
      <g transform="translate(976.0 961.597869318)scale(0.05 -0.05)">
       <use xlink:href="#BitstreamVeraSans-Roman-37"/>
       <use x="63.623046875" xlink:href="#BitstreamVeraSans-Roman-32"/>
      </g>
     </g>
    </g>
    <g id="ytick_3">
     <g id="text_8">
      <!-- 114 -->
      <g transform="translate(976.0 953.743323864)scale(0.05 -0.05)">
       <use xlink:href="#BitstreamVeraSans-Roman-31"/>
       <use x="63.623046875" xlink:href="#BitstreamVeraSans-Roman-31"/>
       <use x="127.24609375" xlink:href="#BitstreamVeraSans-Roman-34"/>
      </g>
     </g>
    </g>
    <g id="ytick_4">
     <g id="text_9">
      <!-- 29 -->
      <defs>
       <path d="M 10.984375 1.515625 
L 10.984375 10.5 
Q 14.703125 8.734375 18.5 7.8125 
Q 22.3125 6.890625 25.984375 6.890625 
Q 35.75 6.890625 40.890625 13.453125 
Q 46.046875 20.015625 46.78125 33.40625 
Q 43.953125 29.203125 39.59375 26.953125 
Q 35.25 24.703125 29.984375 24.703125 
Q 19.046875 24.703125 12.671875 31.3125 
Q 6.296875 37.9375 6.296875 49.421875 
Q 6.296875 60.640625 12.9375 67.421875 
Q 19.578125 74.21875 30.609375 74.21875 
Q 43.265625 74.21875 49.921875 64.515625 
Q 56.59375 54.828125 56.59375 36.375 
Q 56.59375 19.140625 48.40625 8.859375 
Q 40.234375 -1.421875 26.421875 -1.421875 
Q 22.703125 -1.421875 18.890625 -0.6875 
Q 15.09375 0.046875 10.984375 1.515625 
M 30.609375 32.421875 
Q 37.25 32.421875 41.125 36.953125 
Q 45.015625 41.5 45.015625 49.421875 
Q 45.015625 57.28125 41.125 61.84375 
Q 37.25 66.40625 30.609375 66.40625 
Q 23.96875 66.40625 20.09375 61.84375 
Q 16.21875 57.28125 16.21875 49.421875 
Q 16.21875 41.5 20.09375 36.953125 
Q 23.96875 32.421875 30.609375 32.421875 
" id="BitstreamVeraSans-Roman-39"/>
      </defs>
      <g transform="translate(976.0 945.888778409)scale(0.05 -0.05)">
       <use xlink:href="#BitstreamVeraSans-Roman-32"/>
       <use x="63.623046875" xlink:href="#BitstreamVeraSans-Roman-39"/>
      </g>
     </g>
    </g>
    <g id="ytick_5">
     <g id="text_10">
      <!-- 66 -->
      <g transform="translate(976.0 938.034232955)scale(0.05 -0.05)">
       <use xlink:href="#BitstreamVeraSans-Roman-36"/>
       <use x="63.623046875" xlink:href="#BitstreamVeraSans-Roman-36"/>
      </g>
     </g>
    </g>
    <g id="ytick_6">
     <g id="text_11">
      <!-- 110 -->
      <g transform="translate(976.0 930.1796875)scale(0.05 -0.05)">
       <use xlink:href="#BitstreamVeraSans-Roman-31"/>
       <use x="63.623046875" xlink:href="#BitstreamVeraSans-Roman-31"/>
       <use x="127.24609375" xlink:href="#BitstreamVeraSans-Roman-30"/>
      </g>
     </g>
    </g>
    <g id="ytick_7">
     <g id="text_12">
      <!-- 55 -->
      <defs>
       <path d="M 10.796875 72.90625 
L 49.515625 72.90625 
L 49.515625 64.59375 
L 19.828125 64.59375 
L 19.828125 46.734375 
Q 21.96875 47.46875 24.109375 47.828125 
Q 26.265625 48.1875 28.421875 48.1875 
Q 40.625 48.1875 47.75 41.5 
Q 54.890625 34.8125 54.890625 23.390625 
Q 54.890625 11.625 47.5625 5.09375 
Q 40.234375 -1.421875 26.90625 -1.421875 
Q 22.3125 -1.421875 17.546875 -0.640625 
Q 12.796875 0.140625 7.71875 1.703125 
L 7.71875 11.625 
Q 12.109375 9.234375 16.796875 8.0625 
Q 21.484375 6.890625 26.703125 6.890625 
Q 35.15625 6.890625 40.078125 11.328125 
Q 45.015625 15.765625 45.015625 23.390625 
Q 45.015625 31 40.078125 35.4375 
Q 35.15625 39.890625 26.703125 39.890625 
Q 22.75 39.890625 18.8125 39.015625 
Q 14.890625 38.140625 10.796875 36.28125 
z
" id="BitstreamVeraSans-Roman-35"/>
      </defs>
      <g transform="translate(976.0 922.325142045)scale(0.05 -0.05)">
       <use xlink:href="#BitstreamVeraSans-Roman-35"/>
       <use x="63.623046875" xlink:href="#BitstreamVeraSans-Roman-35"/>
      </g>
     </g>
    </g>
    <g id="ytick_8">
     <g id="text_13">
      <!-- 49 -->
      <g transform="translate(976.0 914.470596591)scale(0.05 -0.05)">
       <use xlink:href="#BitstreamVeraSans-Roman-34"/>
       <use x="63.623046875" xlink:href="#BitstreamVeraSans-Roman-39"/>
      </g>
     </g>
    </g>
    <g id="ytick_9">
     <g id="text_14">
      <!-- 20 -->
      <g transform="translate(976.0 906.616051136)scale(0.05 -0.05)">
       <use xlink:href="#BitstreamVeraSans-Roman-32"/>
       <use x="63.623046875" xlink:href="#BitstreamVeraSans-Roman-30"/>
      </g>
     </g>
    </g>
    <g id="ytick_10">
     <g id="text_15">
      <!-- 40 -->
      <g transform="translate(976.0 898.761505682)scale(0.05 -0.05)">
       <use xlink:href="#BitstreamVeraSans-Roman-34"/>
       <use x="63.623046875" xlink:href="#BitstreamVeraSans-Roman-30"/>
      </g>
     </g>
    </g>
    <g id="ytick_11">
     <g id="text_16">
      <!-- 25 -->
      <g transform="translate(976.0 890.906960227)scale(0.05 -0.05)">
       <use xlink:href="#BitstreamVeraSans-Roman-32"/>
       <use x="63.623046875" xlink:href="#BitstreamVeraSans-Roman-35"/>
      </g>
     </g>
    </g>
    <g id="ytick_12">
     <g id="text_17">
      <!-- resistant95 -->
      <defs>
       <path d="M 54.890625 33.015625 
L 54.890625 0 
L 45.90625 0 
L 45.90625 32.71875 
Q 45.90625 40.484375 42.875 44.328125 
Q 39.84375 48.1875 33.796875 48.1875 
Q 26.515625 48.1875 22.3125 43.546875 
Q 18.109375 38.921875 18.109375 30.90625 
L 18.109375 0 
L 9.078125 0 
L 9.078125 54.6875 
L 18.109375 54.6875 
L 18.109375 46.1875 
Q 21.34375 51.125 25.703125 53.5625 
Q 30.078125 56 35.796875 56 
Q 45.21875 56 50.046875 50.171875 
Q 54.890625 44.34375 54.890625 33.015625 
" id="BitstreamVeraSans-Roman-6e"/>
       <path d="M 34.28125 27.484375 
Q 23.390625 27.484375 19.1875 25 
Q 14.984375 22.515625 14.984375 16.5 
Q 14.984375 11.71875 18.140625 8.90625 
Q 21.296875 6.109375 26.703125 6.109375 
Q 34.1875 6.109375 38.703125 11.40625 
Q 43.21875 16.703125 43.21875 25.484375 
L 43.21875 27.484375 
z
M 52.203125 31.203125 
L 52.203125 0 
L 43.21875 0 
L 43.21875 8.296875 
Q 40.140625 3.328125 35.546875 0.953125 
Q 30.953125 -1.421875 24.3125 -1.421875 
Q 15.921875 -1.421875 10.953125 3.296875 
Q 6 8.015625 6 15.921875 
Q 6 25.140625 12.171875 29.828125 
Q 18.359375 34.515625 30.609375 34.515625 
L 43.21875 34.515625 
L 43.21875 35.40625 
Q 43.21875 41.609375 39.140625 45 
Q 35.0625 48.390625 27.6875 48.390625 
Q 23 48.390625 18.546875 47.265625 
Q 14.109375 46.140625 10.015625 43.890625 
L 10.015625 52.203125 
Q 14.9375 54.109375 19.578125 55.046875 
Q 24.21875 56 28.609375 56 
Q 40.484375 56 46.34375 49.84375 
Q 52.203125 43.703125 52.203125 31.203125 
" id="BitstreamVeraSans-Roman-61"/>
       <path d="M 9.421875 54.6875 
L 18.40625 54.6875 
L 18.40625 0 
L 9.421875 0 
z
M 9.421875 75.984375 
L 18.40625 75.984375 
L 18.40625 64.59375 
L 9.421875 64.59375 
z
" id="BitstreamVeraSans-Roman-69"/>
       <path d="M 56.203125 29.59375 
L 56.203125 25.203125 
L 14.890625 25.203125 
Q 15.484375 15.921875 20.484375 11.0625 
Q 25.484375 6.203125 34.421875 6.203125 
Q 39.59375 6.203125 44.453125 7.46875 
Q 49.3125 8.734375 54.109375 11.28125 
L 54.109375 2.78125 
Q 49.265625 0.734375 44.1875 -0.34375 
Q 39.109375 -1.421875 33.890625 -1.421875 
Q 20.796875 -1.421875 13.15625 6.1875 
Q 5.515625 13.8125 5.515625 26.8125 
Q 5.515625 40.234375 12.765625 48.109375 
Q 20.015625 56 32.328125 56 
Q 43.359375 56 49.78125 48.890625 
Q 56.203125 41.796875 56.203125 29.59375 
M 47.21875 32.234375 
Q 47.125 39.59375 43.09375 43.984375 
Q 39.0625 48.390625 32.421875 48.390625 
Q 24.90625 48.390625 20.390625 44.140625 
Q 15.875 39.890625 15.1875 32.171875 
z
" id="BitstreamVeraSans-Roman-65"/>
       <path d="M 18.3125 70.21875 
L 18.3125 54.6875 
L 36.8125 54.6875 
L 36.8125 47.703125 
L 18.3125 47.703125 
L 18.3125 18.015625 
Q 18.3125 11.328125 20.140625 9.421875 
Q 21.96875 7.515625 27.59375 7.515625 
L 36.8125 7.515625 
L 36.8125 0 
L 27.59375 0 
Q 17.1875 0 13.234375 3.875 
Q 9.28125 7.765625 9.28125 18.015625 
L 9.28125 47.703125 
L 2.6875 47.703125 
L 2.6875 54.6875 
L 9.28125 54.6875 
L 9.28125 70.21875 
z
" id="BitstreamVeraSans-Roman-74"/>
       <path d="M 41.109375 46.296875 
Q 39.59375 47.171875 37.8125 47.578125 
Q 36.03125 48 33.890625 48 
Q 26.265625 48 22.1875 43.046875 
Q 18.109375 38.09375 18.109375 28.8125 
L 18.109375 0 
L 9.078125 0 
L 9.078125 54.6875 
L 18.109375 54.6875 
L 18.109375 46.1875 
Q 20.953125 51.171875 25.484375 53.578125 
Q 30.03125 56 36.53125 56 
Q 37.453125 56 38.578125 55.875 
Q 39.703125 55.765625 41.0625 55.515625 
z
" id="BitstreamVeraSans-Roman-72"/>
       <path d="M 44.28125 53.078125 
L 44.28125 44.578125 
Q 40.484375 46.53125 36.375 47.5 
Q 32.28125 48.484375 27.875 48.484375 
Q 21.1875 48.484375 17.84375 46.4375 
Q 14.5 44.390625 14.5 40.28125 
Q 14.5 37.15625 16.890625 35.375 
Q 19.28125 33.59375 26.515625 31.984375 
L 29.59375 31.296875 
Q 39.15625 29.25 43.1875 25.515625 
Q 47.21875 21.78125 47.21875 15.09375 
Q 47.21875 7.46875 41.1875 3.015625 
Q 35.15625 -1.421875 24.609375 -1.421875 
Q 20.21875 -1.421875 15.453125 -0.5625 
Q 10.6875 0.296875 5.421875 2 
L 5.421875 11.28125 
Q 10.40625 8.6875 15.234375 7.390625 
Q 20.0625 6.109375 24.8125 6.109375 
Q 31.15625 6.109375 34.5625 8.28125 
Q 37.984375 10.453125 37.984375 14.40625 
Q 37.984375 18.0625 35.515625 20.015625 
Q 33.0625 21.96875 24.703125 23.78125 
L 21.578125 24.515625 
Q 13.234375 26.265625 9.515625 29.90625 
Q 5.8125 33.546875 5.8125 39.890625 
Q 5.8125 47.609375 11.28125 51.796875 
Q 16.75 56 26.8125 56 
Q 31.78125 56 36.171875 55.265625 
Q 40.578125 54.546875 44.28125 53.078125 
" id="BitstreamVeraSans-Roman-73"/>
      </defs>
      <g transform="translate(976.0 883.052414773)scale(0.05 -0.05)">
       <use xlink:href="#BitstreamVeraSans-Roman-72"/>
       <use x="41.08203125" xlink:href="#BitstreamVeraSans-Roman-65"/>
       <use x="102.60546875" xlink:href="#BitstreamVeraSans-Roman-73"/>
       <use x="154.705078125" xlink:href="#BitstreamVeraSans-Roman-69"/>
       <use x="182.48828125" xlink:href="#BitstreamVeraSans-Roman-73"/>
       <use x="234.587890625" xlink:href="#BitstreamVeraSans-Roman-74"/>
       <use x="273.796875" xlink:href="#BitstreamVeraSans-Roman-61"/>
       <use x="335.076171875" xlink:href="#BitstreamVeraSans-Roman-6e"/>
       <use x="398.455078125" xlink:href="#BitstreamVeraSans-Roman-74"/>
       <use x="437.6640625" xlink:href="#BitstreamVeraSans-Roman-39"/>
       <use x="501.287109375" xlink:href="#BitstreamVeraSans-Roman-35"/>
      </g>
     </g>
    </g>
    <g id="ytick_13">
     <g id="text_18">
      <!-- 75 -->
      <g transform="translate(976.0 875.197869318)scale(0.05 -0.05)">
       <use xlink:href="#BitstreamVeraSans-Roman-37"/>
       <use x="63.623046875" xlink:href="#BitstreamVeraSans-Roman-35"/>
      </g>
     </g>
    </g>
    <g id="ytick_14">
     <g id="text_19">
      <!-- 97 -->
      <g transform="translate(976.0 867.343323864)scale(0.05 -0.05)">
       <use xlink:href="#BitstreamVeraSans-Roman-39"/>
       <use x="63.623046875" xlink:href="#BitstreamVeraSans-Roman-37"/>
      </g>
     </g>
    </g>
    <g id="ytick_15">
     <g id="text_20">
      <!-- 111 -->
      <g transform="translate(976.0 859.488778409)scale(0.05 -0.05)">
       <use xlink:href="#BitstreamVeraSans-Roman-31"/>
       <use x="63.623046875" xlink:href="#BitstreamVeraSans-Roman-31"/>
       <use x="127.24609375" xlink:href="#BitstreamVeraSans-Roman-31"/>
      </g>
     </g>
    </g>
    <g id="ytick_16">
     <g id="text_21">
      <!-- 115 -->
      <g transform="translate(976.0 851.634232955)scale(0.05 -0.05)">
       <use xlink:href="#BitstreamVeraSans-Roman-31"/>
       <use x="63.623046875" xlink:href="#BitstreamVeraSans-Roman-31"/>
       <use x="127.24609375" xlink:href="#BitstreamVeraSans-Roman-35"/>
      </g>
     </g>
    </g>
    <g id="ytick_17">
     <g id="text_22">
      <!-- 32 -->
      <g transform="translate(976.0 843.7796875)scale(0.05 -0.05)">
       <use xlink:href="#BitstreamVeraSans-Roman-33"/>
       <use x="63.623046875" xlink:href="#BitstreamVeraSans-Roman-32"/>
      </g>
     </g>
    </g>
    <g id="ytick_18">
     <g id="text_23">
      <!-- 12 -->
      <g transform="translate(976.0 835.925142045)scale(0.05 -0.05)">
       <use xlink:href="#BitstreamVeraSans-Roman-31"/>
       <use x="63.623046875" xlink:href="#BitstreamVeraSans-Roman-32"/>
      </g>
     </g>
    </g>
    <g id="ytick_19">
     <g id="text_24">
      <!-- 80 -->
      <defs>
       <path d="M 31.78125 34.625 
Q 24.75 34.625 20.71875 30.859375 
Q 16.703125 27.09375 16.703125 20.515625 
Q 16.703125 13.921875 20.71875 10.15625 
Q 24.75 6.390625 31.78125 6.390625 
Q 38.8125 6.390625 42.859375 10.171875 
Q 46.921875 13.96875 46.921875 20.515625 
Q 46.921875 27.09375 42.890625 30.859375 
Q 38.875 34.625 31.78125 34.625 
M 21.921875 38.8125 
Q 15.578125 40.375 12.03125 44.71875 
Q 8.5 49.078125 8.5 55.328125 
Q 8.5 64.0625 14.71875 69.140625 
Q 20.953125 74.21875 31.78125 74.21875 
Q 42.671875 74.21875 48.875 69.140625 
Q 55.078125 64.0625 55.078125 55.328125 
Q 55.078125 49.078125 51.53125 44.71875 
Q 48 40.375 41.703125 38.8125 
Q 48.828125 37.15625 52.796875 32.3125 
Q 56.78125 27.484375 56.78125 20.515625 
Q 56.78125 9.90625 50.3125 4.234375 
Q 43.84375 -1.421875 31.78125 -1.421875 
Q 19.734375 -1.421875 13.25 4.234375 
Q 6.78125 9.90625 6.78125 20.515625 
Q 6.78125 27.484375 10.78125 32.3125 
Q 14.796875 37.15625 21.921875 38.8125 
M 18.3125 54.390625 
Q 18.3125 48.734375 21.84375 45.5625 
Q 25.390625 42.390625 31.78125 42.390625 
Q 38.140625 42.390625 41.71875 45.5625 
Q 45.3125 48.734375 45.3125 54.390625 
Q 45.3125 60.0625 41.71875 63.234375 
Q 38.140625 66.40625 31.78125 66.40625 
Q 25.390625 66.40625 21.84375 63.234375 
Q 18.3125 60.0625 18.3125 54.390625 
" id="BitstreamVeraSans-Roman-38"/>
      </defs>
      <g transform="translate(976.0 828.070596591)scale(0.05 -0.05)">
       <use xlink:href="#BitstreamVeraSans-Roman-38"/>
       <use x="63.623046875" xlink:href="#BitstreamVeraSans-Roman-30"/>
      </g>
     </g>
    </g>
    <g id="ytick_20">
     <g id="text_25">
      <!-- 69 -->
      <g transform="translate(976.0 820.216051136)scale(0.05 -0.05)">
       <use xlink:href="#BitstreamVeraSans-Roman-36"/>
       <use x="63.623046875" xlink:href="#BitstreamVeraSans-Roman-39"/>
      </g>
     </g>
    </g>
    <g id="ytick_21">
     <g id="text_26">
      <!-- 26 -->
      <g transform="translate(976.0 812.361505682)scale(0.05 -0.05)">
       <use xlink:href="#BitstreamVeraSans-Roman-32"/>
       <use x="63.623046875" xlink:href="#BitstreamVeraSans-Roman-36"/>
      </g>
     </g>
    </g>
    <g id="ytick_22">
     <g id="text_27">
      <!-- 28 -->
      <g transform="translate(976.0 804.506960227)scale(0.05 -0.05)">
       <use xlink:href="#BitstreamVeraSans-Roman-32"/>
       <use x="63.623046875" xlink:href="#BitstreamVeraSans-Roman-38"/>
      </g>
     </g>
    </g>
    <g id="ytick_23">
     <g id="text_28">
      <!-- 90 -->
      <g transform="translate(976.0 796.652414773)scale(0.05 -0.05)">
       <use xlink:href="#BitstreamVeraSans-Roman-39"/>
       <use x="63.623046875" xlink:href="#BitstreamVeraSans-Roman-30"/>
      </g>
     </g>
    </g>
    <g id="ytick_24">
     <g id="text_29">
      <!-- 7 -->
      <g transform="translate(976.0 788.797869318)scale(0.05 -0.05)">
       <use xlink:href="#BitstreamVeraSans-Roman-37"/>
      </g>
     </g>
    </g>
    <g id="ytick_25">
     <g id="text_30">
      <!-- 56 -->
      <g transform="translate(976.0 780.943323864)scale(0.05 -0.05)">
       <use xlink:href="#BitstreamVeraSans-Roman-35"/>
       <use x="63.623046875" xlink:href="#BitstreamVeraSans-Roman-36"/>
      </g>
     </g>
    </g>
    <g id="ytick_26">
     <g id="text_31">
      <!-- 64 -->
      <g transform="translate(976.0 773.088778409)scale(0.05 -0.05)">
       <use xlink:href="#BitstreamVeraSans-Roman-36"/>
       <use x="63.623046875" xlink:href="#BitstreamVeraSans-Roman-34"/>
      </g>
     </g>
    </g>
    <g id="ytick_27">
     <g id="text_32">
      <!-- 77 -->
      <g transform="translate(976.0 765.234232955)scale(0.05 -0.05)">
       <use xlink:href="#BitstreamVeraSans-Roman-37"/>
       <use x="63.623046875" xlink:href="#BitstreamVeraSans-Roman-37"/>
      </g>
     </g>
    </g>
    <g id="ytick_28">
     <g id="text_33">
      <!-- 19 -->
      <g transform="translate(976.0 757.3796875)scale(0.05 -0.05)">
       <use xlink:href="#BitstreamVeraSans-Roman-31"/>
       <use x="63.623046875" xlink:href="#BitstreamVeraSans-Roman-39"/>
      </g>
     </g>
    </g>
    <g id="ytick_29">
     <g id="text_34">
      <!-- 92 -->
      <g transform="translate(976.0 749.525142045)scale(0.05 -0.05)">
       <use xlink:href="#BitstreamVeraSans-Roman-39"/>
       <use x="63.623046875" xlink:href="#BitstreamVeraSans-Roman-32"/>
      </g>
     </g>
    </g>
    <g id="ytick_30">
     <g id="text_35">
      <!-- 23 -->
      <g transform="translate(976.0 741.670596591)scale(0.05 -0.05)">
       <use xlink:href="#BitstreamVeraSans-Roman-32"/>
       <use x="63.623046875" xlink:href="#BitstreamVeraSans-Roman-33"/>
      </g>
     </g>
    </g>
    <g id="ytick_31">
     <g id="text_36">
      <!-- 59 -->
      <g transform="translate(976.0 733.816051136)scale(0.05 -0.05)">
       <use xlink:href="#BitstreamVeraSans-Roman-35"/>
       <use x="63.623046875" xlink:href="#BitstreamVeraSans-Roman-39"/>
      </g>
     </g>
    </g>
    <g id="ytick_32">
     <g id="text_37">
      <!-- 1 -->
      <g transform="translate(976.0 725.961505682)scale(0.05 -0.05)">
       <use xlink:href="#BitstreamVeraSans-Roman-31"/>
      </g>
     </g>
    </g>
    <g id="ytick_33">
     <g id="text_38">
      <!-- 13 -->
      <g transform="translate(976.0 718.106960227)scale(0.05 -0.05)">
       <use xlink:href="#BitstreamVeraSans-Roman-31"/>
       <use x="63.623046875" xlink:href="#BitstreamVeraSans-Roman-33"/>
      </g>
     </g>
    </g>
    <g id="ytick_34">
     <g id="text_39">
      <!-- 71 -->
      <g transform="translate(976.0 710.252414773)scale(0.05 -0.05)">
       <use xlink:href="#BitstreamVeraSans-Roman-37"/>
       <use x="63.623046875" xlink:href="#BitstreamVeraSans-Roman-31"/>
      </g>
     </g>
    </g>
    <g id="ytick_35">
     <g id="text_40">
      <!-- 108 -->
      <g transform="translate(976.0 702.397869318)scale(0.05 -0.05)">
       <use xlink:href="#BitstreamVeraSans-Roman-31"/>
       <use x="63.623046875" xlink:href="#BitstreamVeraSans-Roman-30"/>
       <use x="127.24609375" xlink:href="#BitstreamVeraSans-Roman-38"/>
      </g>
     </g>
    </g>
    <g id="ytick_36">
     <g id="text_41">
      <!-- 30 -->
      <g transform="translate(976.0 694.543323864)scale(0.05 -0.05)">
       <use xlink:href="#BitstreamVeraSans-Roman-33"/>
       <use x="63.623046875" xlink:href="#BitstreamVeraSans-Roman-30"/>
      </g>
     </g>
    </g>
    <g id="ytick_37">
     <g id="text_42">
      <!-- 103 -->
      <g transform="translate(976.0 686.688778409)scale(0.05 -0.05)">
       <use xlink:href="#BitstreamVeraSans-Roman-31"/>
       <use x="63.623046875" xlink:href="#BitstreamVeraSans-Roman-30"/>
       <use x="127.24609375" xlink:href="#BitstreamVeraSans-Roman-33"/>
      </g>
     </g>
    </g>
    <g id="ytick_38">
     <g id="text_43">
      <!-- 89 -->
      <g transform="translate(976.0 678.834232955)scale(0.05 -0.05)">
       <use xlink:href="#BitstreamVeraSans-Roman-38"/>
       <use x="63.623046875" xlink:href="#BitstreamVeraSans-Roman-39"/>
      </g>
     </g>
    </g>
    <g id="ytick_39">
     <g id="text_44">
      <!-- 86 -->
      <g transform="translate(976.0 670.9796875)scale(0.05 -0.05)">
       <use xlink:href="#BitstreamVeraSans-Roman-38"/>
       <use x="63.623046875" xlink:href="#BitstreamVeraSans-Roman-36"/>
      </g>
     </g>
    </g>
    <g id="ytick_40">
     <g id="text_45">
      <!-- 8 -->
      <g transform="translate(976.0 663.125142045)scale(0.05 -0.05)">
       <use xlink:href="#BitstreamVeraSans-Roman-38"/>
      </g>
     </g>
    </g>
    <g id="ytick_41">
     <g id="text_46">
      <!-- 87 -->
      <g transform="translate(976.0 655.270596591)scale(0.05 -0.05)">
       <use xlink:href="#BitstreamVeraSans-Roman-38"/>
       <use x="63.623046875" xlink:href="#BitstreamVeraSans-Roman-37"/>
      </g>
     </g>
    </g>
    <g id="ytick_42">
     <g id="text_47">
      <!-- 84 -->
      <g transform="translate(976.0 647.416051136)scale(0.05 -0.05)">
       <use xlink:href="#BitstreamVeraSans-Roman-38"/>
       <use x="63.623046875" xlink:href="#BitstreamVeraSans-Roman-34"/>
      </g>
     </g>
    </g>
    <g id="ytick_43">
     <g id="text_48">
      <!-- 98 -->
      <g transform="translate(976.0 639.561505682)scale(0.05 -0.05)">
       <use xlink:href="#BitstreamVeraSans-Roman-39"/>
       <use x="63.623046875" xlink:href="#BitstreamVeraSans-Roman-38"/>
      </g>
     </g>
    </g>
    <g id="ytick_44">
     <g id="text_49">
      <!-- 58 -->
      <g transform="translate(976.0 631.706960227)scale(0.05 -0.05)">
       <use xlink:href="#BitstreamVeraSans-Roman-35"/>
       <use x="63.623046875" xlink:href="#BitstreamVeraSans-Roman-38"/>
      </g>
     </g>
    </g>
    <g id="ytick_45">
     <g id="text_50">
      <!-- 33 -->
      <g transform="translate(976.0 623.852414773)scale(0.05 -0.05)">
       <use xlink:href="#BitstreamVeraSans-Roman-33"/>
       <use x="63.623046875" xlink:href="#BitstreamVeraSans-Roman-33"/>
      </g>
     </g>
    </g>
    <g id="ytick_46">
     <g id="text_51">
      <!-- 113 -->
      <g transform="translate(976.0 615.997869318)scale(0.05 -0.05)">
       <use xlink:href="#BitstreamVeraSans-Roman-31"/>
       <use x="63.623046875" xlink:href="#BitstreamVeraSans-Roman-31"/>
       <use x="127.24609375" xlink:href="#BitstreamVeraSans-Roman-33"/>
      </g>
     </g>
    </g>
    <g id="ytick_47">
     <g id="text_52">
      <!-- 50 -->
      <g transform="translate(976.0 608.143323864)scale(0.05 -0.05)">
       <use xlink:href="#BitstreamVeraSans-Roman-35"/>
       <use x="63.623046875" xlink:href="#BitstreamVeraSans-Roman-30"/>
      </g>
     </g>
    </g>
    <g id="ytick_48">
     <g id="text_53">
      <!-- 52 -->
      <g transform="translate(976.0 600.288778409)scale(0.05 -0.05)">
       <use xlink:href="#BitstreamVeraSans-Roman-35"/>
       <use x="63.623046875" xlink:href="#BitstreamVeraSans-Roman-32"/>
      </g>
     </g>
    </g>
    <g id="ytick_49">
     <g id="text_54">
      <!-- 63 -->
      <g transform="translate(976.0 592.434232955)scale(0.05 -0.05)">
       <use xlink:href="#BitstreamVeraSans-Roman-36"/>
       <use x="63.623046875" xlink:href="#BitstreamVeraSans-Roman-33"/>
      </g>
     </g>
    </g>
    <g id="ytick_50">
     <g id="text_55">
      <!-- 57 -->
      <g transform="translate(976.0 584.5796875)scale(0.05 -0.05)">
       <use xlink:href="#BitstreamVeraSans-Roman-35"/>
       <use x="63.623046875" xlink:href="#BitstreamVeraSans-Roman-37"/>
      </g>
     </g>
    </g>
    <g id="ytick_51">
     <g id="text_56">
      <!-- 91 -->
      <g transform="translate(976.0 576.725142045)scale(0.05 -0.05)">
       <use xlink:href="#BitstreamVeraSans-Roman-39"/>
       <use x="63.623046875" xlink:href="#BitstreamVeraSans-Roman-31"/>
      </g>
     </g>
    </g>
    <g id="ytick_52">
     <g id="text_57">
      <!-- 62 -->
      <g transform="translate(976.0 568.870596591)scale(0.05 -0.05)">
       <use xlink:href="#BitstreamVeraSans-Roman-36"/>
       <use x="63.623046875" xlink:href="#BitstreamVeraSans-Roman-32"/>
      </g>
     </g>
    </g>
    <g id="ytick_53">
     <g id="text_58">
      <!-- 100 -->
      <g transform="translate(976.0 561.016051136)scale(0.05 -0.05)">
       <use xlink:href="#BitstreamVeraSans-Roman-31"/>
       <use x="63.623046875" xlink:href="#BitstreamVeraSans-Roman-30"/>
       <use x="127.24609375" xlink:href="#BitstreamVeraSans-Roman-30"/>
      </g>
     </g>
    </g>
    <g id="ytick_54">
     <g id="text_59">
      <!-- 85 -->
      <g transform="translate(976.0 553.161505682)scale(0.05 -0.05)">
       <use xlink:href="#BitstreamVeraSans-Roman-38"/>
       <use x="63.623046875" xlink:href="#BitstreamVeraSans-Roman-35"/>
      </g>
     </g>
    </g>
    <g id="ytick_55">
     <g id="text_60">
      <!-- 94 -->
      <g transform="translate(976.0 545.306960227)scale(0.05 -0.05)">
       <use xlink:href="#BitstreamVeraSans-Roman-39"/>
       <use x="63.623046875" xlink:href="#BitstreamVeraSans-Roman-34"/>
      </g>
     </g>
    </g>
    <g id="ytick_56">
     <g id="text_61">
      <!-- 101 -->
      <g transform="translate(976.0 537.452414773)scale(0.05 -0.05)">
       <use xlink:href="#BitstreamVeraSans-Roman-31"/>
       <use x="63.623046875" xlink:href="#BitstreamVeraSans-Roman-30"/>
       <use x="127.24609375" xlink:href="#BitstreamVeraSans-Roman-31"/>
      </g>
     </g>
    </g>
    <g id="ytick_57">
     <g id="text_62">
      <!-- 24 -->
      <g transform="translate(976.0 529.597869318)scale(0.05 -0.05)">
       <use xlink:href="#BitstreamVeraSans-Roman-32"/>
       <use x="63.623046875" xlink:href="#BitstreamVeraSans-Roman-34"/>
      </g>
     </g>
    </g>
    <g id="ytick_58">
     <g id="text_63">
      <!-- 82 -->
      <g transform="translate(976.0 521.743323864)scale(0.05 -0.05)">
       <use xlink:href="#BitstreamVeraSans-Roman-38"/>
       <use x="63.623046875" xlink:href="#BitstreamVeraSans-Roman-32"/>
      </g>
     </g>
    </g>
    <g id="ytick_59">
     <g id="text_64">
      <!-- 73 -->
      <g transform="translate(976.0 513.888778409)scale(0.05 -0.05)">
       <use xlink:href="#BitstreamVeraSans-Roman-37"/>
       <use x="63.623046875" xlink:href="#BitstreamVeraSans-Roman-33"/>
      </g>
     </g>
    </g>
    <g id="ytick_60">
     <g id="text_65">
      <!-- 81 -->
      <g transform="translate(976.0 506.034232955)scale(0.05 -0.05)">
       <use xlink:href="#BitstreamVeraSans-Roman-38"/>
       <use x="63.623046875" xlink:href="#BitstreamVeraSans-Roman-31"/>
      </g>
     </g>
    </g>
    <g id="ytick_61">
     <g id="text_66">
      <!-- 102 -->
      <g transform="translate(976.0 498.1796875)scale(0.05 -0.05)">
       <use xlink:href="#BitstreamVeraSans-Roman-31"/>
       <use x="63.623046875" xlink:href="#BitstreamVeraSans-Roman-30"/>
       <use x="127.24609375" xlink:href="#BitstreamVeraSans-Roman-32"/>
      </g>
     </g>
    </g>
    <g id="ytick_62">
     <g id="text_67">
      <!-- 93 -->
      <g transform="translate(976.0 490.325142045)scale(0.05 -0.05)">
       <use xlink:href="#BitstreamVeraSans-Roman-39"/>
       <use x="63.623046875" xlink:href="#BitstreamVeraSans-Roman-33"/>
      </g>
     </g>
    </g>
    <g id="ytick_63">
     <g id="text_68">
      <!-- 35 -->
      <g transform="translate(976.0 482.470596591)scale(0.05 -0.05)">
       <use xlink:href="#BitstreamVeraSans-Roman-33"/>
       <use x="63.623046875" xlink:href="#BitstreamVeraSans-Roman-35"/>
      </g>
     </g>
    </g>
    <g id="ytick_64">
     <g id="text_69">
      <!-- 79 -->
      <g transform="translate(976.0 474.616051136)scale(0.05 -0.05)">
       <use xlink:href="#BitstreamVeraSans-Roman-37"/>
       <use x="63.623046875" xlink:href="#BitstreamVeraSans-Roman-39"/>
      </g>
     </g>
    </g>
    <g id="ytick_65">
     <g id="text_70">
      <!-- 31 -->
      <g transform="translate(976.0 466.761505682)scale(0.05 -0.05)">
       <use xlink:href="#BitstreamVeraSans-Roman-33"/>
       <use x="63.623046875" xlink:href="#BitstreamVeraSans-Roman-31"/>
      </g>
     </g>
    </g>
    <g id="ytick_66">
     <g id="text_71">
      <!-- 67 -->
      <g transform="translate(976.0 458.906960227)scale(0.05 -0.05)">
       <use xlink:href="#BitstreamVeraSans-Roman-36"/>
       <use x="63.623046875" xlink:href="#BitstreamVeraSans-Roman-37"/>
      </g>
     </g>
    </g>
    <g id="ytick_67">
     <g id="text_72">
      <!-- 53 -->
      <g transform="translate(976.0 451.052414773)scale(0.05 -0.05)">
       <use xlink:href="#BitstreamVeraSans-Roman-35"/>
       <use x="63.623046875" xlink:href="#BitstreamVeraSans-Roman-33"/>
      </g>
     </g>
    </g>
    <g id="ytick_68">
     <g id="text_73">
      <!-- 65 -->
      <g transform="translate(976.0 443.197869318)scale(0.05 -0.05)">
       <use xlink:href="#BitstreamVeraSans-Roman-36"/>
       <use x="63.623046875" xlink:href="#BitstreamVeraSans-Roman-35"/>
      </g>
     </g>
    </g>
    <g id="ytick_69">
     <g id="text_74">
      <!-- 34 -->
      <g transform="translate(976.0 435.343323864)scale(0.05 -0.05)">
       <use xlink:href="#BitstreamVeraSans-Roman-33"/>
       <use x="63.623046875" xlink:href="#BitstreamVeraSans-Roman-34"/>
      </g>
     </g>
    </g>
    <g id="ytick_70">
     <g id="text_75">
      <!-- 60 -->
      <g transform="translate(976.0 427.488778409)scale(0.05 -0.05)">
       <use xlink:href="#BitstreamVeraSans-Roman-36"/>
       <use x="63.623046875" xlink:href="#BitstreamVeraSans-Roman-30"/>
      </g>
     </g>
    </g>
    <g id="ytick_71">
     <g id="text_76">
      <!-- 76 -->
      <g transform="translate(976.0 419.634232955)scale(0.05 -0.05)">
       <use xlink:href="#BitstreamVeraSans-Roman-37"/>
       <use x="63.623046875" xlink:href="#BitstreamVeraSans-Roman-36"/>
      </g>
     </g>
    </g>
    <g id="ytick_72">
     <g id="text_77">
      <!-- 107 -->
      <g transform="translate(976.0 411.7796875)scale(0.05 -0.05)">
       <use xlink:href="#BitstreamVeraSans-Roman-31"/>
       <use x="63.623046875" xlink:href="#BitstreamVeraSans-Roman-30"/>
       <use x="127.24609375" xlink:href="#BitstreamVeraSans-Roman-37"/>
      </g>
     </g>
    </g>
    <g id="ytick_73">
     <g id="text_78">
      <!-- 88 -->
      <g transform="translate(976.0 403.925142045)scale(0.05 -0.05)">
       <use xlink:href="#BitstreamVeraSans-Roman-38"/>
       <use x="63.623046875" xlink:href="#BitstreamVeraSans-Roman-38"/>
      </g>
     </g>
    </g>
    <g id="ytick_74">
     <g id="text_79">
      <!-- 68 -->
      <g transform="translate(976.0 396.070596591)scale(0.05 -0.05)">
       <use xlink:href="#BitstreamVeraSans-Roman-36"/>
       <use x="63.623046875" xlink:href="#BitstreamVeraSans-Roman-38"/>
      </g>
     </g>
    </g>
    <g id="ytick_75">
     <g id="text_80">
      <!-- 70 -->
      <g transform="translate(976.0 388.216051136)scale(0.05 -0.05)">
       <use xlink:href="#BitstreamVeraSans-Roman-37"/>
       <use x="63.623046875" xlink:href="#BitstreamVeraSans-Roman-30"/>
      </g>
     </g>
    </g>
    <g id="ytick_76">
     <g id="text_81">
      <!-- 99 -->
      <g transform="translate(976.0 380.361505682)scale(0.05 -0.05)">
       <use xlink:href="#BitstreamVeraSans-Roman-39"/>
       <use x="63.623046875" xlink:href="#BitstreamVeraSans-Roman-39"/>
      </g>
     </g>
    </g>
    <g id="ytick_77">
     <g id="text_82">
      <!-- 3 -->
      <g transform="translate(976.0 372.506960227)scale(0.05 -0.05)">
       <use xlink:href="#BitstreamVeraSans-Roman-33"/>
      </g>
     </g>
    </g>
    <g id="ytick_78">
     <g id="text_83">
      <!-- 6 -->
      <g transform="translate(976.0 364.652414773)scale(0.05 -0.05)">
       <use xlink:href="#BitstreamVeraSans-Roman-36"/>
      </g>
     </g>
    </g>
    <g id="ytick_79">
     <g id="text_84">
      <!-- 10 -->
      <g transform="translate(976.0 356.797869318)scale(0.05 -0.05)">
       <use xlink:href="#BitstreamVeraSans-Roman-31"/>
       <use x="63.623046875" xlink:href="#BitstreamVeraSans-Roman-30"/>
      </g>
     </g>
    </g>
    <g id="ytick_80">
     <g id="text_85">
      <!-- 54 -->
      <g transform="translate(976.0 348.943323864)scale(0.05 -0.05)">
       <use xlink:href="#BitstreamVeraSans-Roman-35"/>
       <use x="63.623046875" xlink:href="#BitstreamVeraSans-Roman-34"/>
      </g>
     </g>
    </g>
    <g id="ytick_81">
     <g id="text_86">
      <!-- 16 -->
      <g transform="translate(976.0 341.088778409)scale(0.05 -0.05)">
       <use xlink:href="#BitstreamVeraSans-Roman-31"/>
       <use x="63.623046875" xlink:href="#BitstreamVeraSans-Roman-36"/>
      </g>
     </g>
    </g>
    <g id="ytick_82">
     <g id="text_87">
      <!-- 15 -->
      <g transform="translate(976.0 333.234232955)scale(0.05 -0.05)">
       <use xlink:href="#BitstreamVeraSans-Roman-31"/>
       <use x="63.623046875" xlink:href="#BitstreamVeraSans-Roman-35"/>
      </g>
     </g>
    </g>
    <g id="ytick_83">
     <g id="text_88">
      <!-- 18 -->
      <g transform="translate(976.0 325.3796875)scale(0.05 -0.05)">
       <use xlink:href="#BitstreamVeraSans-Roman-31"/>
       <use x="63.623046875" xlink:href="#BitstreamVeraSans-Roman-38"/>
      </g>
     </g>
    </g>
    <g id="ytick_84">
     <g id="text_89">
      <!-- 2 -->
      <g transform="translate(976.0 317.525142045)scale(0.05 -0.05)">
       <use xlink:href="#BitstreamVeraSans-Roman-32"/>
      </g>
     </g>
    </g>
    <g id="ytick_85">
     <g id="text_90">
      <!-- 27 -->
      <g transform="translate(976.0 309.670596591)scale(0.05 -0.05)">
       <use xlink:href="#BitstreamVeraSans-Roman-32"/>
       <use x="63.623046875" xlink:href="#BitstreamVeraSans-Roman-37"/>
      </g>
     </g>
    </g>
    <g id="ytick_86">
     <g id="text_91">
      <!-- 4 -->
      <g transform="translate(976.0 301.816051136)scale(0.05 -0.05)">
       <use xlink:href="#BitstreamVeraSans-Roman-34"/>
      </g>
     </g>
    </g>
    <g id="ytick_87">
     <g id="text_92">
      <!-- resistant96 -->
      <g transform="translate(976.0 293.961505682)scale(0.05 -0.05)">
       <use xlink:href="#BitstreamVeraSans-Roman-72"/>
       <use x="41.08203125" xlink:href="#BitstreamVeraSans-Roman-65"/>
       <use x="102.60546875" xlink:href="#BitstreamVeraSans-Roman-73"/>
       <use x="154.705078125" xlink:href="#BitstreamVeraSans-Roman-69"/>
       <use x="182.48828125" xlink:href="#BitstreamVeraSans-Roman-73"/>
       <use x="234.587890625" xlink:href="#BitstreamVeraSans-Roman-74"/>
       <use x="273.796875" xlink:href="#BitstreamVeraSans-Roman-61"/>
       <use x="335.076171875" xlink:href="#BitstreamVeraSans-Roman-6e"/>
       <use x="398.455078125" xlink:href="#BitstreamVeraSans-Roman-74"/>
       <use x="437.6640625" xlink:href="#BitstreamVeraSans-Roman-39"/>
       <use x="501.287109375" xlink:href="#BitstreamVeraSans-Roman-36"/>
      </g>
     </g>
    </g>
    <g id="ytick_88">
     <g id="text_93">
      <!-- 48 -->
      <g transform="translate(976.0 286.106960227)scale(0.05 -0.05)">
       <use xlink:href="#BitstreamVeraSans-Roman-34"/>
       <use x="63.623046875" xlink:href="#BitstreamVeraSans-Roman-38"/>
      </g>
     </g>
    </g>
    <g id="ytick_89">
     <g id="text_94">
      <!-- 116 -->
      <g transform="translate(976.0 278.252414773)scale(0.05 -0.05)">
       <use xlink:href="#BitstreamVeraSans-Roman-31"/>
       <use x="63.623046875" xlink:href="#BitstreamVeraSans-Roman-31"/>
       <use x="127.24609375" xlink:href="#BitstreamVeraSans-Roman-36"/>
      </g>
     </g>
    </g>
    <g id="ytick_90">
     <g id="text_95">
      <!-- 14 -->
      <g transform="translate(976.0 270.397869318)scale(0.05 -0.05)">
       <use xlink:href="#BitstreamVeraSans-Roman-31"/>
       <use x="63.623046875" xlink:href="#BitstreamVeraSans-Roman-34"/>
      </g>
     </g>
    </g>
    <g id="ytick_91">
     <g id="text_96">
      <!-- 17 -->
      <g transform="translate(976.0 262.543323864)scale(0.05 -0.05)">
       <use xlink:href="#BitstreamVeraSans-Roman-31"/>
       <use x="63.623046875" xlink:href="#BitstreamVeraSans-Roman-37"/>
      </g>
     </g>
    </g>
    <g id="ytick_92">
     <g id="text_97">
      <!-- 83 -->
      <g transform="translate(976.0 254.688778409)scale(0.05 -0.05)">
       <use xlink:href="#BitstreamVeraSans-Roman-38"/>
       <use x="63.623046875" xlink:href="#BitstreamVeraSans-Roman-33"/>
      </g>
     </g>
    </g>
    <g id="ytick_93">
     <g id="text_98">
      <!-- resistant44 -->
      <g transform="translate(976.0 246.834232955)scale(0.05 -0.05)">
       <use xlink:href="#BitstreamVeraSans-Roman-72"/>
       <use x="41.08203125" xlink:href="#BitstreamVeraSans-Roman-65"/>
       <use x="102.60546875" xlink:href="#BitstreamVeraSans-Roman-73"/>
       <use x="154.705078125" xlink:href="#BitstreamVeraSans-Roman-69"/>
       <use x="182.48828125" xlink:href="#BitstreamVeraSans-Roman-73"/>
       <use x="234.587890625" xlink:href="#BitstreamVeraSans-Roman-74"/>
       <use x="273.796875" xlink:href="#BitstreamVeraSans-Roman-61"/>
       <use x="335.076171875" xlink:href="#BitstreamVeraSans-Roman-6e"/>
       <use x="398.455078125" xlink:href="#BitstreamVeraSans-Roman-74"/>
       <use x="437.6640625" xlink:href="#BitstreamVeraSans-Roman-34"/>
       <use x="501.287109375" xlink:href="#BitstreamVeraSans-Roman-34"/>
      </g>
     </g>
    </g>
    <g id="ytick_94">
     <g id="text_99">
      <!-- resistant43 -->
      <g transform="translate(976.0 238.9796875)scale(0.05 -0.05)">
       <use xlink:href="#BitstreamVeraSans-Roman-72"/>
       <use x="41.08203125" xlink:href="#BitstreamVeraSans-Roman-65"/>
       <use x="102.60546875" xlink:href="#BitstreamVeraSans-Roman-73"/>
       <use x="154.705078125" xlink:href="#BitstreamVeraSans-Roman-69"/>
       <use x="182.48828125" xlink:href="#BitstreamVeraSans-Roman-73"/>
       <use x="234.587890625" xlink:href="#BitstreamVeraSans-Roman-74"/>
       <use x="273.796875" xlink:href="#BitstreamVeraSans-Roman-61"/>
       <use x="335.076171875" xlink:href="#BitstreamVeraSans-Roman-6e"/>
       <use x="398.455078125" xlink:href="#BitstreamVeraSans-Roman-74"/>
       <use x="437.6640625" xlink:href="#BitstreamVeraSans-Roman-34"/>
       <use x="501.287109375" xlink:href="#BitstreamVeraSans-Roman-33"/>
      </g>
     </g>
    </g>
    <g id="ytick_95">
     <g id="text_100">
      <!-- 74 -->
      <g transform="translate(976.0 231.125142045)scale(0.05 -0.05)">
       <use xlink:href="#BitstreamVeraSans-Roman-37"/>
       <use x="63.623046875" xlink:href="#BitstreamVeraSans-Roman-34"/>
      </g>
     </g>
    </g>
    <g id="ytick_96">
     <g id="text_101">
      <!-- 37 -->
      <g transform="translate(976.0 223.270596591)scale(0.05 -0.05)">
       <use xlink:href="#BitstreamVeraSans-Roman-33"/>
       <use x="63.623046875" xlink:href="#BitstreamVeraSans-Roman-37"/>
      </g>
     </g>
    </g>
    <g id="ytick_97">
     <g id="text_102">
      <!-- 11 -->
      <g transform="translate(976.0 215.416051136)scale(0.05 -0.05)">
       <use xlink:href="#BitstreamVeraSans-Roman-31"/>
       <use x="63.623046875" xlink:href="#BitstreamVeraSans-Roman-31"/>
      </g>
     </g>
    </g>
    <g id="ytick_98">
     <g id="text_103">
      <!-- 47 -->
      <g transform="translate(976.0 207.561505682)scale(0.05 -0.05)">
       <use xlink:href="#BitstreamVeraSans-Roman-34"/>
       <use x="63.623046875" xlink:href="#BitstreamVeraSans-Roman-37"/>
      </g>
     </g>
    </g>
    <g id="ytick_99">
     <g id="text_104">
      <!-- 39 -->
      <g transform="translate(976.0 199.706960227)scale(0.05 -0.05)">
       <use xlink:href="#BitstreamVeraSans-Roman-33"/>
       <use x="63.623046875" xlink:href="#BitstreamVeraSans-Roman-39"/>
      </g>
     </g>
    </g>
    <g id="ytick_100">
     <g id="text_105">
      <!-- resistant41 -->
      <g transform="translate(976.0 191.852414773)scale(0.05 -0.05)">
       <use xlink:href="#BitstreamVeraSans-Roman-72"/>
       <use x="41.08203125" xlink:href="#BitstreamVeraSans-Roman-65"/>
       <use x="102.60546875" xlink:href="#BitstreamVeraSans-Roman-73"/>
       <use x="154.705078125" xlink:href="#BitstreamVeraSans-Roman-69"/>
       <use x="182.48828125" xlink:href="#BitstreamVeraSans-Roman-73"/>
       <use x="234.587890625" xlink:href="#BitstreamVeraSans-Roman-74"/>
       <use x="273.796875" xlink:href="#BitstreamVeraSans-Roman-61"/>
       <use x="335.076171875" xlink:href="#BitstreamVeraSans-Roman-6e"/>
       <use x="398.455078125" xlink:href="#BitstreamVeraSans-Roman-74"/>
       <use x="437.6640625" xlink:href="#BitstreamVeraSans-Roman-34"/>
       <use x="501.287109375" xlink:href="#BitstreamVeraSans-Roman-31"/>
      </g>
     </g>
    </g>
    <g id="ytick_101">
     <g id="text_106">
      <!-- 36 -->
      <g transform="translate(976.0 183.997869318)scale(0.05 -0.05)">
       <use xlink:href="#BitstreamVeraSans-Roman-33"/>
       <use x="63.623046875" xlink:href="#BitstreamVeraSans-Roman-36"/>
      </g>
     </g>
    </g>
    <g id="ytick_102">
     <g id="text_107">
      <!-- 9 -->
      <g transform="translate(976.0 176.143323864)scale(0.05 -0.05)">
       <use xlink:href="#BitstreamVeraSans-Roman-39"/>
      </g>
     </g>
    </g>
    <g id="ytick_103">
     <g id="text_108">
      <!-- 5 -->
      <g transform="translate(976.0 168.288778409)scale(0.05 -0.05)">
       <use xlink:href="#BitstreamVeraSans-Roman-35"/>
      </g>
     </g>
    </g>
    <g id="ytick_104">
     <g id="text_109">
      <!-- 61 -->
      <g transform="translate(976.0 160.434232955)scale(0.05 -0.05)">
       <use xlink:href="#BitstreamVeraSans-Roman-36"/>
       <use x="63.623046875" xlink:href="#BitstreamVeraSans-Roman-31"/>
      </g>
     </g>
    </g>
    <g id="ytick_105">
     <g id="text_110">
      <!-- 112 -->
      <g transform="translate(976.0 152.5796875)scale(0.05 -0.05)">
       <use xlink:href="#BitstreamVeraSans-Roman-31"/>
       <use x="63.623046875" xlink:href="#BitstreamVeraSans-Roman-31"/>
       <use x="127.24609375" xlink:href="#BitstreamVeraSans-Roman-32"/>
      </g>
     </g>
    </g>
    <g id="ytick_106">
     <g id="text_111">
      <!-- 38 -->
      <g transform="translate(976.0 144.725142045)scale(0.05 -0.05)">
       <use xlink:href="#BitstreamVeraSans-Roman-33"/>
       <use x="63.623046875" xlink:href="#BitstreamVeraSans-Roman-38"/>
      </g>
     </g>
    </g>
    <g id="ytick_107">
     <g id="text_112">
      <!-- 45 -->
      <g transform="translate(976.0 136.870596591)scale(0.05 -0.05)">
       <use xlink:href="#BitstreamVeraSans-Roman-34"/>
       <use x="63.623046875" xlink:href="#BitstreamVeraSans-Roman-35"/>
      </g>
     </g>
    </g>
    <g id="ytick_108">
     <g id="text_113">
      <!-- 51 -->
      <g transform="translate(976.0 129.016051136)scale(0.05 -0.05)">
       <use xlink:href="#BitstreamVeraSans-Roman-35"/>
       <use x="63.623046875" xlink:href="#BitstreamVeraSans-Roman-31"/>
      </g>
     </g>
    </g>
    <g id="ytick_109">
     <g id="text_114">
      <!-- 109 -->
      <g transform="translate(976.0 121.161505682)scale(0.05 -0.05)">
       <use xlink:href="#BitstreamVeraSans-Roman-31"/>
       <use x="63.623046875" xlink:href="#BitstreamVeraSans-Roman-30"/>
       <use x="127.24609375" xlink:href="#BitstreamVeraSans-Roman-39"/>
      </g>
     </g>
    </g>
    <g id="ytick_110">
     <g id="text_115">
      <!-- resistant42 -->
      <g transform="translate(976.0 113.306960227)scale(0.05 -0.05)">
       <use xlink:href="#BitstreamVeraSans-Roman-72"/>
       <use x="41.08203125" xlink:href="#BitstreamVeraSans-Roman-65"/>
       <use x="102.60546875" xlink:href="#BitstreamVeraSans-Roman-73"/>
       <use x="154.705078125" xlink:href="#BitstreamVeraSans-Roman-69"/>
       <use x="182.48828125" xlink:href="#BitstreamVeraSans-Roman-73"/>
       <use x="234.587890625" xlink:href="#BitstreamVeraSans-Roman-74"/>
       <use x="273.796875" xlink:href="#BitstreamVeraSans-Roman-61"/>
       <use x="335.076171875" xlink:href="#BitstreamVeraSans-Roman-6e"/>
       <use x="398.455078125" xlink:href="#BitstreamVeraSans-Roman-74"/>
       <use x="437.6640625" xlink:href="#BitstreamVeraSans-Roman-34"/>
       <use x="501.287109375" xlink:href="#BitstreamVeraSans-Roman-32"/>
      </g>
     </g>
    </g>
   </g>
  </g>
 </g>
 <defs>
  <clipPath id="p6f2c1a15cb">
   <rect height="864.0" width="837.0" x="135.0" y="108.0"/>
  </clipPath>
 </defs>
</svg>
